G04 #@! TF.GenerationSoftware,KiCad,Pcbnew,7.0.10*
G04 #@! TF.CreationDate,2024-06-25T19:11:58-05:00*
G04 #@! TF.ProjectId,DMClockPanel,444d436c-6f63-46b5-9061-6e656c2e6b69,rev?*
G04 #@! TF.SameCoordinates,Original*
G04 #@! TF.FileFunction,Soldermask,Bot*
G04 #@! TF.FilePolarity,Negative*
%FSLAX46Y46*%
G04 Gerber Fmt 4.6, Leading zero omitted, Abs format (unit mm)*
G04 Created by KiCad (PCBNEW 7.0.10) date 2024-06-25 19:11:58*
%MOMM*%
%LPD*%
G01*
G04 APERTURE LIST*
G04 Aperture macros list*
%AMRoundRect*
0 Rectangle with rounded corners*
0 $1 Rounding radius*
0 $2 $3 $4 $5 $6 $7 $8 $9 X,Y pos of 4 corners*
0 Add a 4 corners polygon primitive as box body*
4,1,4,$2,$3,$4,$5,$6,$7,$8,$9,$2,$3,0*
0 Add four circle primitives for the rounded corners*
1,1,$1+$1,$2,$3*
1,1,$1+$1,$4,$5*
1,1,$1+$1,$6,$7*
1,1,$1+$1,$8,$9*
0 Add four rect primitives between the rounded corners*
20,1,$1+$1,$2,$3,$4,$5,0*
20,1,$1+$1,$4,$5,$6,$7,0*
20,1,$1+$1,$6,$7,$8,$9,0*
20,1,$1+$1,$8,$9,$2,$3,0*%
G04 Aperture macros list end*
%ADD10C,1.400000*%
%ADD11O,1.400000X1.400000*%
%ADD12C,1.612000*%
%ADD13R,1.700000X1.700000*%
%ADD14O,1.700000X1.700000*%
%ADD15C,2.200000*%
%ADD16R,3.500000X3.500000*%
%ADD17RoundRect,0.750000X-0.750000X-1.000000X0.750000X-1.000000X0.750000X1.000000X-0.750000X1.000000X0*%
%ADD18RoundRect,0.875000X-0.875000X-0.875000X0.875000X-0.875000X0.875000X0.875000X-0.875000X0.875000X0*%
%ADD19C,1.346200*%
%ADD20R,1.800000X1.800000*%
%ADD21O,1.800000X1.800000*%
%ADD22R,1.600000X1.600000*%
%ADD23O,1.600000X1.600000*%
%ADD24C,1.512000*%
%ADD25C,2.454000*%
%ADD26R,1.050000X1.500000*%
%ADD27O,1.050000X1.500000*%
%ADD28RoundRect,0.250000X0.845000X-0.620000X0.845000X0.620000X-0.845000X0.620000X-0.845000X-0.620000X0*%
%ADD29O,2.190000X1.740000*%
%ADD30O,3.500000X2.200000*%
%ADD31R,2.500000X1.500000*%
%ADD32O,2.500000X1.500000*%
%ADD33C,2.484000*%
G04 APERTURE END LIST*
D10*
X109485000Y-118485000D03*
D11*
X109485000Y-121025000D03*
D10*
X156540805Y-89797799D03*
D11*
X159080805Y-89797799D03*
D10*
X102500000Y-105785000D03*
D11*
X102500000Y-108325000D03*
D12*
X128535000Y-172370000D03*
X128535000Y-167370000D03*
D10*
X184430805Y-72067799D03*
D11*
X184430805Y-74607799D03*
D13*
X89800000Y-123515000D03*
D14*
X89800000Y-120975000D03*
X89800000Y-118435000D03*
X89800000Y-115895000D03*
X89800000Y-113355000D03*
X89800000Y-110815000D03*
X89800000Y-108275000D03*
D10*
X117740001Y-128545000D03*
D11*
X117740001Y-126005000D03*
D10*
X156540805Y-168537799D03*
D11*
X159080805Y-168537799D03*
D10*
X156540805Y-122817799D03*
D11*
X159080805Y-122817799D03*
D15*
X89800000Y-84145000D03*
D13*
X114565002Y-124780000D03*
D14*
X114565002Y-127320000D03*
D10*
X103770000Y-89175000D03*
D11*
X103770000Y-86635000D03*
D10*
X183795805Y-41487799D03*
D11*
X183795805Y-38947799D03*
D16*
X96435000Y-98115000D03*
D17*
X90435000Y-98115000D03*
D18*
X93435000Y-102815000D03*
D10*
X103770000Y-118485000D03*
D11*
X103770000Y-121025000D03*
D13*
X112660000Y-157170000D03*
D14*
X112660000Y-154630000D03*
D15*
X138060000Y-178125000D03*
D19*
X175246165Y-91715499D03*
X175246165Y-81530099D03*
X172475025Y-80478539D03*
X169536245Y-80836679D03*
X167097845Y-82518159D03*
X165721165Y-85141979D03*
X165721165Y-88103619D03*
X167097845Y-90727439D03*
X169536245Y-92408919D03*
X172475025Y-92767059D03*
X177918245Y-86622799D03*
X177209585Y-83747519D03*
X177209585Y-89498079D03*
D13*
X110120002Y-127267091D03*
D14*
X110120002Y-124727091D03*
D13*
X193295805Y-123432799D03*
D14*
X193295805Y-120892799D03*
X193295805Y-118352799D03*
X193295805Y-115812799D03*
X193295805Y-113272799D03*
X193295805Y-110732799D03*
X193295805Y-108192799D03*
D20*
X120280001Y-158030001D03*
D21*
X120280001Y-160570001D03*
D10*
X100595000Y-86735000D03*
D11*
X100595000Y-89275000D03*
D22*
X132980001Y-131135001D03*
D23*
X130440001Y-131135001D03*
X127900001Y-131135001D03*
X125360001Y-131135001D03*
X122820001Y-131135001D03*
X120280001Y-131135001D03*
X117740001Y-131135001D03*
X115200001Y-131135001D03*
X112660001Y-131135001D03*
X110120001Y-131135001D03*
X110120001Y-138755001D03*
X112660001Y-138755001D03*
X115200001Y-138755001D03*
X117740001Y-138755001D03*
X120280001Y-138755001D03*
X122820001Y-138755001D03*
X125360001Y-138755001D03*
X127900001Y-138755001D03*
X130440001Y-138755001D03*
X132980001Y-138755001D03*
D20*
X120280000Y-169235000D03*
D21*
X120280000Y-171775000D03*
D24*
X84720000Y-152090000D03*
X84720000Y-156090000D03*
X84720000Y-158090000D03*
X84720000Y-160090000D03*
D25*
X84720000Y-149990000D03*
X84720000Y-162190000D03*
D15*
X150140805Y-84148203D03*
D19*
X175246165Y-52345499D03*
X175246165Y-42160099D03*
X172475025Y-41108539D03*
X169536245Y-41466679D03*
X167097845Y-43148159D03*
X165721165Y-45771979D03*
X165721165Y-48733619D03*
X167097845Y-51357439D03*
X169536245Y-53038919D03*
X172475025Y-53397059D03*
X177918245Y-47252799D03*
X177209585Y-44377519D03*
X177209585Y-50128079D03*
D15*
X198400805Y-178062799D03*
D10*
X90485000Y-152090000D03*
D11*
X93025000Y-152090000D03*
D19*
X175246165Y-170455499D03*
X175246165Y-160270099D03*
X172475025Y-159218539D03*
X169536245Y-159576679D03*
X167097845Y-161258159D03*
X165721165Y-163881979D03*
X165721165Y-166843619D03*
X167097845Y-169467439D03*
X169536245Y-171148919D03*
X172475025Y-171507059D03*
X177918245Y-165362799D03*
X177209585Y-162487519D03*
X177209585Y-168238079D03*
D10*
X156540805Y-83447799D03*
D11*
X159080805Y-83447799D03*
D15*
X193320805Y-84148203D03*
D10*
X97420000Y-86735000D03*
D11*
X97420000Y-89275000D03*
D13*
X97420000Y-154000001D03*
D14*
X97420000Y-151460001D03*
D10*
X184430805Y-113977799D03*
D11*
X184430805Y-116517799D03*
D10*
X105675000Y-108175000D03*
D11*
X105675000Y-105635000D03*
D19*
X175246165Y-111400499D03*
X175246165Y-101215099D03*
X172475025Y-100163539D03*
X169536245Y-100521679D03*
X167097845Y-102203159D03*
X165721165Y-104826979D03*
X165721165Y-107788619D03*
X167097845Y-110412439D03*
X169536245Y-112093919D03*
X172475025Y-112452059D03*
X177918245Y-106307799D03*
X177209585Y-103432519D03*
X177209585Y-109183079D03*
D10*
X92340000Y-138755000D03*
D11*
X92340000Y-141295000D03*
D13*
X117105000Y-113350000D03*
D14*
X117105000Y-115890000D03*
D13*
X120300000Y-120315000D03*
D14*
X122840000Y-120315000D03*
D10*
X115200001Y-144520001D03*
D11*
X115200001Y-147060001D03*
D15*
X132980000Y-84145000D03*
D26*
X132980001Y-145740001D03*
D27*
X131710001Y-145740001D03*
X130440001Y-145740001D03*
D26*
X122820001Y-145740001D03*
D27*
X121550001Y-145740001D03*
X120280001Y-145740001D03*
D10*
X156540805Y-44077799D03*
D11*
X159080805Y-44077799D03*
D10*
X156540805Y-70112799D03*
D11*
X159080805Y-70112799D03*
D15*
X84720000Y-178125000D03*
D10*
X109485000Y-154045000D03*
D11*
X109485000Y-156585000D03*
D13*
X129170000Y-120340000D03*
D14*
X126630000Y-120340000D03*
D19*
X175246165Y-131085499D03*
X175246165Y-120900099D03*
X172475025Y-119848539D03*
X169536245Y-120206679D03*
X167097845Y-121888159D03*
X165721165Y-124511979D03*
X165721165Y-127473619D03*
X167097845Y-130097439D03*
X169536245Y-131778919D03*
X172475025Y-132137059D03*
X177918245Y-125992799D03*
X177209585Y-123117519D03*
X177209585Y-128868079D03*
D15*
X136790000Y-115260000D03*
D10*
X126625001Y-124087091D03*
D11*
X124085001Y-124087091D03*
D13*
X120960001Y-127262091D03*
D14*
X120960001Y-124722091D03*
D10*
X156540805Y-162187799D03*
D11*
X159080805Y-162187799D03*
D19*
X175246165Y-150770499D03*
X175246165Y-140585099D03*
X172475025Y-139533539D03*
X169536245Y-139891679D03*
X167097845Y-141573159D03*
X165721165Y-144196979D03*
X165721165Y-147158619D03*
X167097845Y-149782439D03*
X169536245Y-151463919D03*
X172475025Y-151822059D03*
X177918245Y-145677799D03*
X177209585Y-142802519D03*
X177209585Y-148553079D03*
D10*
X90485000Y-144520000D03*
D11*
X93025000Y-144520000D03*
D10*
X156540805Y-63762799D03*
D11*
X159080805Y-63762799D03*
D10*
X184430805Y-151442799D03*
D11*
X184430805Y-153982799D03*
D10*
X156540805Y-50427799D03*
D11*
X159080805Y-50427799D03*
D10*
X156540805Y-24392799D03*
D11*
X159080805Y-24392799D03*
D10*
X184430805Y-79587799D03*
D11*
X184430805Y-77047799D03*
D10*
X156540805Y-142502799D03*
D11*
X159080805Y-142502799D03*
D28*
X86625000Y-91452500D03*
D29*
X86625000Y-88912500D03*
D15*
X145060805Y-178128203D03*
D10*
X184430805Y-158962799D03*
D11*
X184430805Y-156422799D03*
D30*
X84720000Y-165480000D03*
X84720000Y-173680000D03*
D31*
X84720000Y-167580000D03*
D32*
X84720000Y-169580000D03*
X84720000Y-171580000D03*
D19*
X175246165Y-72030499D03*
X175246165Y-61845099D03*
X172475025Y-60793539D03*
X169536245Y-61151679D03*
X167097845Y-62833159D03*
X165721165Y-65456979D03*
X165721165Y-68418619D03*
X167097845Y-71042439D03*
X169536245Y-72723919D03*
X172475025Y-73082059D03*
X177918245Y-66937799D03*
X177209585Y-64062519D03*
X177209585Y-69813079D03*
D33*
X103690804Y-173850000D03*
X103690804Y-153360000D03*
D10*
X156540805Y-103132799D03*
D11*
X159080805Y-103132799D03*
D10*
X183795805Y-33967799D03*
D11*
X183795805Y-36507799D03*
D19*
X175246165Y-32660499D03*
X175246165Y-22475099D03*
X172475025Y-21423539D03*
X169536245Y-21781679D03*
X167097845Y-23463159D03*
X165721165Y-26086979D03*
X165721165Y-29048619D03*
X167097845Y-31672439D03*
X169536245Y-33353919D03*
X172475025Y-33712059D03*
X177918245Y-27567799D03*
X177209585Y-24692519D03*
X177209585Y-30443079D03*
D13*
X117105000Y-90495000D03*
D14*
X117105000Y-93035000D03*
X117105000Y-95575000D03*
D10*
X156540805Y-148852799D03*
D11*
X159080805Y-148852799D03*
D20*
X100595000Y-112310000D03*
D21*
X100595000Y-114850000D03*
D10*
X184430805Y-121497799D03*
D11*
X184430805Y-118957799D03*
D10*
X110120001Y-144520001D03*
D11*
X110120001Y-147060001D03*
D10*
X90435000Y-148280000D03*
D11*
X92975000Y-148280000D03*
D10*
X106945000Y-131135000D03*
D11*
X106945000Y-128595000D03*
D12*
X128535001Y-158995000D03*
X128535001Y-153995000D03*
D10*
X104405000Y-102510000D03*
D11*
X104405000Y-99970000D03*
D10*
X156540805Y-30742799D03*
D11*
X159080805Y-30742799D03*
D10*
X156540805Y-109482799D03*
D11*
X159080805Y-109482799D03*
D10*
X156540805Y-129167799D03*
D11*
X159080805Y-129167799D03*
M02*
