G04 #@! TF.GenerationSoftware,KiCad,Pcbnew,7.0.10*
G04 #@! TF.CreationDate,2024-06-25T19:11:58-05:00*
G04 #@! TF.ProjectId,DMClockPanel,444d436c-6f63-46b5-9061-6e656c2e6b69,rev?*
G04 #@! TF.SameCoordinates,Original*
G04 #@! TF.FileFunction,Soldermask,Top*
G04 #@! TF.FilePolarity,Negative*
%FSLAX46Y46*%
G04 Gerber Fmt 4.6, Leading zero omitted, Abs format (unit mm)*
G04 Created by KiCad (PCBNEW 7.0.10) date 2024-06-25 19:11:58*
%MOMM*%
%LPD*%
G01*
G04 APERTURE LIST*
G04 Aperture macros list*
%AMRoundRect*
0 Rectangle with rounded corners*
0 $1 Rounding radius*
0 $2 $3 $4 $5 $6 $7 $8 $9 X,Y pos of 4 corners*
0 Add a 4 corners polygon primitive as box body*
4,1,4,$2,$3,$4,$5,$6,$7,$8,$9,$2,$3,0*
0 Add four circle primitives for the rounded corners*
1,1,$1+$1,$2,$3*
1,1,$1+$1,$4,$5*
1,1,$1+$1,$6,$7*
1,1,$1+$1,$8,$9*
0 Add four rect primitives between the rounded corners*
20,1,$1+$1,$2,$3,$4,$5,0*
20,1,$1+$1,$4,$5,$6,$7,0*
20,1,$1+$1,$6,$7,$8,$9,0*
20,1,$1+$1,$8,$9,$2,$3,0*%
G04 Aperture macros list end*
%ADD10C,1.400000*%
%ADD11O,1.400000X1.400000*%
%ADD12C,1.500000*%
%ADD13C,1.612000*%
%ADD14R,1.700000X1.700000*%
%ADD15O,1.700000X1.700000*%
%ADD16C,2.200000*%
%ADD17R,3.500000X3.500000*%
%ADD18RoundRect,0.750000X-0.750000X-1.000000X0.750000X-1.000000X0.750000X1.000000X-0.750000X1.000000X0*%
%ADD19RoundRect,0.875000X-0.875000X-0.875000X0.875000X-0.875000X0.875000X0.875000X-0.875000X0.875000X0*%
%ADD20RoundRect,0.250000X0.250000X0.475000X-0.250000X0.475000X-0.250000X-0.475000X0.250000X-0.475000X0*%
%ADD21RoundRect,0.250000X-0.475000X0.250000X-0.475000X-0.250000X0.475000X-0.250000X0.475000X0.250000X0*%
%ADD22C,1.346200*%
%ADD23R,1.800000X1.800000*%
%ADD24O,1.800000X1.800000*%
%ADD25R,1.600000X1.600000*%
%ADD26O,1.600000X1.600000*%
%ADD27C,1.512000*%
%ADD28C,2.454000*%
%ADD29RoundRect,0.250000X0.475000X-0.250000X0.475000X0.250000X-0.475000X0.250000X-0.475000X-0.250000X0*%
%ADD30R,1.050000X1.500000*%
%ADD31O,1.050000X1.500000*%
%ADD32RoundRect,0.250000X-0.250000X-0.475000X0.250000X-0.475000X0.250000X0.475000X-0.250000X0.475000X0*%
%ADD33R,1.355600X0.500800*%
%ADD34R,0.500800X1.355600*%
%ADD35RoundRect,0.250000X0.845000X-0.620000X0.845000X0.620000X-0.845000X0.620000X-0.845000X-0.620000X0*%
%ADD36O,2.190000X1.740000*%
%ADD37O,3.500000X2.200000*%
%ADD38R,2.500000X1.500000*%
%ADD39O,2.500000X1.500000*%
%ADD40C,2.484000*%
%ADD41R,0.250000X0.600000*%
%ADD42RoundRect,0.218750X0.381250X-0.218750X0.381250X0.218750X-0.381250X0.218750X-0.381250X-0.218750X0*%
%ADD43RoundRect,0.099250X-0.297750X1.027750X-0.297750X-1.027750X0.297750X-1.027750X0.297750X1.027750X0*%
G04 APERTURE END LIST*
D10*
X109485000Y-118485000D03*
D11*
X109485000Y-121025000D03*
D10*
X156540805Y-89797799D03*
D11*
X159080805Y-89797799D03*
D10*
X102500000Y-105785000D03*
D11*
X102500000Y-108325000D03*
D12*
X173635805Y-35822799D03*
X173635805Y-134247799D03*
X179350805Y-63127799D03*
D13*
X128535000Y-172370000D03*
X128535000Y-167370000D03*
D10*
X184430805Y-72067799D03*
D11*
X184430805Y-74607799D03*
D12*
X173635805Y-75192799D03*
D14*
X89800000Y-123515000D03*
D15*
X89800000Y-120975000D03*
X89800000Y-118435000D03*
X89800000Y-115895000D03*
X89800000Y-113355000D03*
X89800000Y-110815000D03*
X89800000Y-108275000D03*
D10*
X117740001Y-128545000D03*
D11*
X117740001Y-126005000D03*
D10*
X156540805Y-168537799D03*
D11*
X159080805Y-168537799D03*
D12*
X163475805Y-104402799D03*
D10*
X156540805Y-122817799D03*
D11*
X159080805Y-122817799D03*
D12*
X169190805Y-75192799D03*
D16*
X89800000Y-84145000D03*
D14*
X114565002Y-124780000D03*
D15*
X114565002Y-127320000D03*
D10*
X103770000Y-89175000D03*
D11*
X103770000Y-86635000D03*
D12*
X169190805Y-137422799D03*
X176810805Y-59952799D03*
X180620805Y-47252799D03*
D10*
X183795805Y-41487799D03*
D11*
X183795805Y-38947799D03*
D12*
X179350805Y-110117799D03*
D17*
X96435000Y-98115000D03*
D18*
X90435000Y-98115000D03*
D19*
X93435000Y-102815000D03*
D12*
X180620805Y-145677799D03*
X169190805Y-173617799D03*
D20*
X95195000Y-87320000D03*
X93295000Y-87320000D03*
D21*
X108215000Y-87005000D03*
X108215000Y-88905000D03*
D12*
X169190805Y-157107799D03*
X169190805Y-55507799D03*
X165380805Y-72652799D03*
X165380805Y-100592799D03*
X165380805Y-61222799D03*
X176810805Y-99322799D03*
D10*
X103770000Y-118485000D03*
D11*
X103770000Y-121025000D03*
D14*
X112660000Y-157170000D03*
D15*
X112660000Y-154630000D03*
D16*
X138060000Y-178125000D03*
D22*
X175246165Y-91715499D03*
X175246165Y-81530099D03*
X172475025Y-80478539D03*
X169536245Y-80836679D03*
X167097845Y-82518159D03*
X165721165Y-85141979D03*
X165721165Y-88103619D03*
X167097845Y-90727439D03*
X169536245Y-92408919D03*
X172475025Y-92767059D03*
X177918245Y-86622799D03*
X177209585Y-83747519D03*
X177209585Y-89498079D03*
D12*
X169190805Y-78367799D03*
D14*
X110120002Y-127267091D03*
D15*
X110120002Y-124727091D03*
D14*
X193295805Y-123432799D03*
D15*
X193295805Y-120892799D03*
X193295805Y-118352799D03*
X193295805Y-115812799D03*
X193295805Y-113272799D03*
X193295805Y-110732799D03*
X193295805Y-108192799D03*
D23*
X120280001Y-158030001D03*
D24*
X120280001Y-160570001D03*
D10*
X100595000Y-86735000D03*
D11*
X100595000Y-89275000D03*
D25*
X132980001Y-131135001D03*
D26*
X130440001Y-131135001D03*
X127900001Y-131135001D03*
X125360001Y-131135001D03*
X122820001Y-131135001D03*
X120280001Y-131135001D03*
X117740001Y-131135001D03*
X115200001Y-131135001D03*
X112660001Y-131135001D03*
X110120001Y-131135001D03*
X110120001Y-138755001D03*
X112660001Y-138755001D03*
X115200001Y-138755001D03*
X117740001Y-138755001D03*
X120280001Y-138755001D03*
X122820001Y-138755001D03*
X125360001Y-138755001D03*
X127900001Y-138755001D03*
X130440001Y-138755001D03*
X132980001Y-138755001D03*
D23*
X120280000Y-169235000D03*
D24*
X120280000Y-171775000D03*
D12*
X165380805Y-131707799D03*
D27*
X84720000Y-152090000D03*
X84720000Y-156090000D03*
X84720000Y-158090000D03*
X84720000Y-160090000D03*
D28*
X84720000Y-149990000D03*
X84720000Y-162190000D03*
D12*
X169190805Y-38997799D03*
D16*
X150140805Y-84148203D03*
D12*
X176810805Y-138692799D03*
X180620805Y-125992799D03*
D22*
X175246165Y-52345499D03*
X175246165Y-42160099D03*
X172475025Y-41108539D03*
X169536245Y-41466679D03*
X167097845Y-43148159D03*
X165721165Y-45771979D03*
X165721165Y-48733619D03*
X167097845Y-51357439D03*
X169536245Y-53038919D03*
X172475025Y-53397059D03*
X177918245Y-47252799D03*
X177209585Y-44377519D03*
X177209585Y-50128079D03*
D12*
X179350805Y-23757799D03*
X173635805Y-58682799D03*
X179350805Y-51062799D03*
D16*
X198400805Y-178062799D03*
D12*
X163475805Y-124087799D03*
D10*
X90485000Y-152090000D03*
D11*
X93025000Y-152090000D03*
D22*
X175246165Y-170455499D03*
X175246165Y-160270099D03*
X172475025Y-159218539D03*
X169536245Y-159576679D03*
X167097845Y-161258159D03*
X165721165Y-163881979D03*
X165721165Y-166843619D03*
X167097845Y-169467439D03*
X169536245Y-171148919D03*
X172475025Y-171507059D03*
X177918245Y-165362799D03*
X177209585Y-162487519D03*
X177209585Y-168238079D03*
D10*
X156540805Y-83447799D03*
D11*
X159080805Y-83447799D03*
D12*
X179350805Y-102497799D03*
D16*
X193320805Y-84148203D03*
D10*
X97420000Y-86735000D03*
D11*
X97420000Y-89275000D03*
D14*
X97420000Y-154000001D03*
D15*
X97420000Y-151460001D03*
D10*
X184430805Y-113977799D03*
D11*
X184430805Y-116517799D03*
D10*
X105675000Y-108175000D03*
D11*
X105675000Y-105635000D03*
D12*
X169190805Y-19312799D03*
D22*
X175246165Y-111400499D03*
X175246165Y-101215099D03*
X172475025Y-100163539D03*
X169536245Y-100521679D03*
X167097845Y-102203159D03*
X165721165Y-104826979D03*
X165721165Y-107788619D03*
X167097845Y-110412439D03*
X169536245Y-112093919D03*
X172475025Y-112452059D03*
X177918245Y-106307799D03*
X177209585Y-103432519D03*
X177209585Y-109183079D03*
D12*
X163475805Y-68842799D03*
X169190805Y-94877799D03*
D10*
X92340000Y-138755000D03*
D11*
X92340000Y-141295000D03*
D12*
X179350805Y-149487799D03*
X173635805Y-98052799D03*
X180620805Y-86622799D03*
D21*
X113295000Y-99070000D03*
X113295000Y-100970000D03*
D12*
X165380805Y-21852799D03*
D14*
X117105000Y-113350000D03*
D15*
X117105000Y-115890000D03*
D14*
X120300000Y-120315000D03*
D15*
X122840000Y-120315000D03*
D10*
X115200001Y-144520001D03*
D11*
X115200001Y-147060001D03*
D12*
X176810805Y-113292799D03*
X176810805Y-54237799D03*
D16*
X132980000Y-84145000D03*
D12*
X180620805Y-106307799D03*
X163475805Y-65032799D03*
D29*
X133615000Y-123515000D03*
X133615000Y-121615000D03*
D30*
X132980001Y-145740001D03*
D31*
X131710001Y-145740001D03*
X130440001Y-145740001D03*
D12*
X173635805Y-153932799D03*
D32*
X93295000Y-89860000D03*
X95195000Y-89860000D03*
D30*
X122820001Y-145740001D03*
D31*
X121550001Y-145740001D03*
X120280001Y-145740001D03*
D10*
X156540805Y-44077799D03*
D11*
X159080805Y-44077799D03*
D12*
X176810805Y-172347799D03*
X165380805Y-33282799D03*
D10*
X156540805Y-70112799D03*
D11*
X159080805Y-70112799D03*
D21*
X108215000Y-92720000D03*
X108215000Y-94620000D03*
D12*
X173635805Y-157107799D03*
X176810805Y-93607799D03*
X179350805Y-82812799D03*
D33*
X181293006Y-92745598D03*
X181293006Y-93545599D03*
X181293006Y-94345598D03*
X181293006Y-95145599D03*
X181293006Y-95945597D03*
X181293006Y-96745598D03*
X181293006Y-97545599D03*
X181293006Y-98345597D03*
X181293006Y-99145598D03*
X181293006Y-99945597D03*
X181293006Y-100745598D03*
D34*
X182970805Y-102423397D03*
X183770806Y-102423397D03*
X184570805Y-102423397D03*
X185370806Y-102423397D03*
X186170804Y-102423397D03*
X186970805Y-102423397D03*
X187770806Y-102423397D03*
X188570804Y-102423397D03*
X189370805Y-102423397D03*
X190170804Y-102423397D03*
X190970805Y-102423397D03*
D33*
X192648604Y-100745598D03*
X192648604Y-99945597D03*
X192648604Y-99145598D03*
X192648604Y-98345597D03*
X192648604Y-97545599D03*
X192648604Y-96745598D03*
X192648604Y-95945597D03*
X192648604Y-95145599D03*
X192648604Y-94345598D03*
X192648604Y-93545599D03*
X192648604Y-92745598D03*
D34*
X190970805Y-91067799D03*
X190170804Y-91067799D03*
X189370805Y-91067799D03*
X188570804Y-91067799D03*
X187770806Y-91067799D03*
X186970805Y-91067799D03*
X186170804Y-91067799D03*
X185370806Y-91067799D03*
X184570805Y-91067799D03*
X183770806Y-91067799D03*
X182970805Y-91067799D03*
D16*
X84720000Y-178125000D03*
D10*
X109485000Y-154045000D03*
D11*
X109485000Y-156585000D03*
D14*
X129170000Y-120340000D03*
D15*
X126630000Y-120340000D03*
D12*
X173635805Y-114562799D03*
X169190805Y-117737799D03*
X176810805Y-119007799D03*
X169190805Y-58682799D03*
D29*
X108215000Y-113670000D03*
X108215000Y-111770000D03*
D12*
X163475805Y-84717799D03*
D22*
X175246165Y-131085499D03*
X175246165Y-120900099D03*
X172475025Y-119848539D03*
X169536245Y-120206679D03*
X167097845Y-121888159D03*
X165721165Y-124511979D03*
X165721165Y-127473619D03*
X167097845Y-130097439D03*
X169536245Y-131778919D03*
X172475025Y-132137059D03*
X177918245Y-125992799D03*
X177209585Y-123117519D03*
X177209585Y-128868079D03*
D16*
X136790000Y-115260000D03*
D10*
X126625001Y-124087091D03*
D11*
X124085001Y-124087091D03*
D12*
X165380805Y-92337799D03*
X176810805Y-40267799D03*
D32*
X196180805Y-50427799D03*
X198080805Y-50427799D03*
D14*
X120960001Y-127262091D03*
D15*
X120960001Y-124722091D03*
D12*
X176810805Y-79637799D03*
X163475805Y-88527799D03*
X163475805Y-127897799D03*
X176810805Y-20582799D03*
X179350805Y-129802799D03*
D10*
X156540805Y-162187799D03*
D11*
X159080805Y-162187799D03*
D22*
X175246165Y-150770499D03*
X175246165Y-140585099D03*
X172475025Y-139533539D03*
X169536245Y-139891679D03*
X167097845Y-141573159D03*
X165721165Y-144196979D03*
X165721165Y-147158619D03*
X167097845Y-149782439D03*
X169536245Y-151463919D03*
X172475025Y-151822059D03*
X177918245Y-145677799D03*
X177209585Y-142802519D03*
X177209585Y-148553079D03*
D12*
X179350805Y-43442799D03*
X165380805Y-159647799D03*
X169190805Y-35822799D03*
X163475805Y-163457799D03*
X180620805Y-165362799D03*
D29*
X103770000Y-125735000D03*
X103770000Y-123835000D03*
D33*
X181763005Y-53375598D03*
X181763005Y-54175599D03*
X181763005Y-54975598D03*
X181763005Y-55775599D03*
X181763005Y-56575597D03*
X181763005Y-57375598D03*
X181763005Y-58175599D03*
X181763005Y-58975597D03*
X181763005Y-59775598D03*
X181763005Y-60575597D03*
X181763005Y-61375598D03*
D34*
X183440804Y-63053397D03*
X184240805Y-63053397D03*
X185040804Y-63053397D03*
X185840805Y-63053397D03*
X186640803Y-63053397D03*
X187440804Y-63053397D03*
X188240805Y-63053397D03*
X189040803Y-63053397D03*
X189840804Y-63053397D03*
X190640803Y-63053397D03*
X191440804Y-63053397D03*
D33*
X193118603Y-61375598D03*
X193118603Y-60575597D03*
X193118603Y-59775598D03*
X193118603Y-58975597D03*
X193118603Y-58175599D03*
X193118603Y-57375598D03*
X193118603Y-56575597D03*
X193118603Y-55775599D03*
X193118603Y-54975598D03*
X193118603Y-54175599D03*
X193118603Y-53375598D03*
D34*
X191440804Y-51697799D03*
X190640803Y-51697799D03*
X189840804Y-51697799D03*
X189040803Y-51697799D03*
X188240805Y-51697799D03*
X187440804Y-51697799D03*
X186640803Y-51697799D03*
X185840805Y-51697799D03*
X185040804Y-51697799D03*
X184240805Y-51697799D03*
X183440804Y-51697799D03*
D12*
X173635805Y-19312799D03*
X165380805Y-80907799D03*
X179350805Y-90432799D03*
X163475805Y-167267799D03*
D10*
X90485000Y-144520000D03*
D11*
X93025000Y-144520000D03*
D10*
X156540805Y-63762799D03*
D11*
X159080805Y-63762799D03*
D33*
X181293006Y-131555000D03*
X181293006Y-132355001D03*
X181293006Y-133155000D03*
X181293006Y-133955001D03*
X181293006Y-134754999D03*
X181293006Y-135555000D03*
X181293006Y-136355001D03*
X181293006Y-137154999D03*
X181293006Y-137955000D03*
X181293006Y-138754999D03*
X181293006Y-139555000D03*
D34*
X182970805Y-141232799D03*
X183770806Y-141232799D03*
X184570805Y-141232799D03*
X185370806Y-141232799D03*
X186170804Y-141232799D03*
X186970805Y-141232799D03*
X187770806Y-141232799D03*
X188570804Y-141232799D03*
X189370805Y-141232799D03*
X190170804Y-141232799D03*
X190970805Y-141232799D03*
D33*
X192648604Y-139555000D03*
X192648604Y-138754999D03*
X192648604Y-137955000D03*
X192648604Y-137154999D03*
X192648604Y-136355001D03*
X192648604Y-135555000D03*
X192648604Y-134754999D03*
X192648604Y-133955001D03*
X192648604Y-133155000D03*
X192648604Y-132355001D03*
X192648604Y-131555000D03*
D34*
X190970805Y-129877201D03*
X190170804Y-129877201D03*
X189370805Y-129877201D03*
X188570804Y-129877201D03*
X187770806Y-129877201D03*
X186970805Y-129877201D03*
X186170804Y-129877201D03*
X185370806Y-129877201D03*
X184570805Y-129877201D03*
X183770806Y-129877201D03*
X182970805Y-129877201D03*
D10*
X184430805Y-151442799D03*
D11*
X184430805Y-153982799D03*
D12*
X165380805Y-52967799D03*
D10*
X156540805Y-50427799D03*
D11*
X159080805Y-50427799D03*
D10*
X156540805Y-24392799D03*
D11*
X159080805Y-24392799D03*
D12*
X179350805Y-161552799D03*
D32*
X193640805Y-142502799D03*
X195540805Y-142502799D03*
D12*
X179350805Y-122182799D03*
D10*
X184430805Y-79587799D03*
D11*
X184430805Y-77047799D03*
D10*
X156540805Y-142502799D03*
D11*
X159080805Y-142502799D03*
D12*
X176810805Y-152662799D03*
X173635805Y-117737799D03*
D35*
X86625000Y-91452500D03*
D36*
X86625000Y-88912500D03*
D12*
X163475805Y-45347799D03*
X165380805Y-112022799D03*
D16*
X145060805Y-178128203D03*
D10*
X184430805Y-158962799D03*
D11*
X184430805Y-156422799D03*
D37*
X84720000Y-165480000D03*
X84720000Y-173680000D03*
D38*
X84720000Y-167580000D03*
D39*
X84720000Y-169580000D03*
X84720000Y-171580000D03*
D12*
X176810805Y-132977799D03*
X179350805Y-70747799D03*
X176810805Y-158377799D03*
D22*
X175246165Y-72030499D03*
X175246165Y-61845099D03*
X172475025Y-60793539D03*
X169536245Y-61151679D03*
X167097845Y-62833159D03*
X165721165Y-65456979D03*
X165721165Y-68418619D03*
X167097845Y-71042439D03*
X169536245Y-72723919D03*
X172475025Y-73082059D03*
X177918245Y-66937799D03*
X177209585Y-64062519D03*
X177209585Y-69813079D03*
D40*
X103690804Y-173850000D03*
X103690804Y-153360000D03*
D10*
X156540805Y-103132799D03*
D11*
X159080805Y-103132799D03*
D10*
X183795805Y-33967799D03*
D11*
X183795805Y-36507799D03*
D12*
X165380805Y-151392799D03*
X169190805Y-98052799D03*
D21*
X113295000Y-105420000D03*
X113295000Y-107320000D03*
D22*
X175246165Y-32660499D03*
X175246165Y-22475099D03*
X172475025Y-21423539D03*
X169536245Y-21781679D03*
X167097845Y-23463159D03*
X165721165Y-26086979D03*
X165721165Y-29048619D03*
X167097845Y-31672439D03*
X169536245Y-33353919D03*
X172475025Y-33712059D03*
X177918245Y-27567799D03*
X177209585Y-24692519D03*
X177209585Y-30443079D03*
D12*
X179350805Y-169172799D03*
D21*
X105675000Y-111770000D03*
X105675000Y-113670000D03*
D14*
X117105000Y-90495000D03*
D15*
X117105000Y-93035000D03*
X117105000Y-95575000D03*
D10*
X156540805Y-148852799D03*
D11*
X159080805Y-148852799D03*
D23*
X100595000Y-112310000D03*
D24*
X100595000Y-114850000D03*
D12*
X163475805Y-143772799D03*
X165380805Y-120277799D03*
D41*
X107350000Y-101420000D03*
X107850000Y-101420000D03*
X108350000Y-101420000D03*
X108850000Y-101420000D03*
X108850000Y-100020000D03*
X108350000Y-100020000D03*
X107850000Y-100020000D03*
X107350000Y-100020000D03*
D21*
X113295000Y-92720000D03*
X113295000Y-94620000D03*
D10*
X184430805Y-121497799D03*
D11*
X184430805Y-118957799D03*
D12*
X179350805Y-31377799D03*
X173635805Y-137422799D03*
X169190805Y-153932799D03*
D10*
X110120001Y-144520001D03*
D11*
X110120001Y-147060001D03*
D12*
X180620805Y-27567799D03*
X169190805Y-134247799D03*
X173635805Y-94877799D03*
X173635805Y-173617799D03*
X179350805Y-141867799D03*
X165380805Y-41537799D03*
X163475805Y-25662799D03*
D10*
X90435000Y-148280000D03*
D11*
X92975000Y-148280000D03*
D10*
X106945000Y-131135000D03*
D11*
X106945000Y-128595000D03*
D13*
X128535001Y-158995000D03*
X128535001Y-153995000D03*
D32*
X193640805Y-87892799D03*
X195540805Y-87892799D03*
D12*
X163475805Y-147582799D03*
D10*
X104405000Y-102510000D03*
D11*
X104405000Y-99970000D03*
D12*
X163475805Y-108212799D03*
X165380805Y-171077799D03*
X176810805Y-73922799D03*
X165380805Y-139962799D03*
X173635805Y-55507799D03*
D10*
X156540805Y-30742799D03*
D11*
X159080805Y-30742799D03*
D12*
X173635805Y-38997799D03*
D42*
X108215000Y-106797500D03*
X108215000Y-104672500D03*
D10*
X156540805Y-109482799D03*
D11*
X159080805Y-109482799D03*
D12*
X169190805Y-114562799D03*
D10*
X156540805Y-129167799D03*
D11*
X159080805Y-129167799D03*
D12*
X163475805Y-49157799D03*
X180620805Y-66937799D03*
X163475805Y-29472799D03*
X176810805Y-34552799D03*
X173635805Y-78367799D03*
D43*
X105040002Y-136005000D03*
X103770002Y-136005000D03*
X102500002Y-136005000D03*
X101230002Y-136005000D03*
X99960002Y-136005000D03*
X98690002Y-136005000D03*
X97420002Y-136005000D03*
X96150002Y-136005000D03*
X96150002Y-145315000D03*
X97420002Y-145315000D03*
X98690002Y-145315000D03*
X99960002Y-145315000D03*
X101230002Y-145315000D03*
X102500002Y-145315000D03*
X103770002Y-145315000D03*
X105040002Y-145315000D03*
M02*
