G04 #@! TF.GenerationSoftware,KiCad,Pcbnew,7.0.10*
G04 #@! TF.CreationDate,2024-06-25T19:11:58-05:00*
G04 #@! TF.ProjectId,DMClockPanel,444d436c-6f63-46b5-9061-6e656c2e6b69,rev?*
G04 #@! TF.SameCoordinates,Original*
G04 #@! TF.FileFunction,OtherDrawing,Comment*
%FSLAX46Y46*%
G04 Gerber Fmt 4.6, Leading zero omitted, Abs format (unit mm)*
G04 Created by KiCad (PCBNEW 7.0.10) date 2024-06-25 19:11:58*
%MOMM*%
%LPD*%
G01*
G04 APERTURE LIST*
%ADD10C,2.000000*%
%ADD11C,0.150000*%
G04 APERTURE END LIST*
D10*
X141590000Y-180680000D02*
X141590000Y-12390000D01*
D11*
X139651541Y-181853152D02*
X139889636Y-182519819D01*
X139889636Y-182519819D02*
X140127731Y-181853152D01*
X140461065Y-182472200D02*
X140556303Y-182519819D01*
X140556303Y-182519819D02*
X140746779Y-182519819D01*
X140746779Y-182519819D02*
X140842017Y-182472200D01*
X140842017Y-182472200D02*
X140889636Y-182376961D01*
X140889636Y-182376961D02*
X140889636Y-182329342D01*
X140889636Y-182329342D02*
X140842017Y-182234104D01*
X140842017Y-182234104D02*
X140746779Y-182186485D01*
X140746779Y-182186485D02*
X140603922Y-182186485D01*
X140603922Y-182186485D02*
X140508684Y-182138866D01*
X140508684Y-182138866D02*
X140461065Y-182043628D01*
X140461065Y-182043628D02*
X140461065Y-181996009D01*
X140461065Y-181996009D02*
X140508684Y-181900771D01*
X140508684Y-181900771D02*
X140603922Y-181853152D01*
X140603922Y-181853152D02*
X140746779Y-181853152D01*
X140746779Y-181853152D02*
X140842017Y-181900771D01*
X141746779Y-182472200D02*
X141651541Y-182519819D01*
X141651541Y-182519819D02*
X141461065Y-182519819D01*
X141461065Y-182519819D02*
X141365827Y-182472200D01*
X141365827Y-182472200D02*
X141318208Y-182424580D01*
X141318208Y-182424580D02*
X141270589Y-182329342D01*
X141270589Y-182329342D02*
X141270589Y-182043628D01*
X141270589Y-182043628D02*
X141318208Y-181948390D01*
X141318208Y-181948390D02*
X141365827Y-181900771D01*
X141365827Y-181900771D02*
X141461065Y-181853152D01*
X141461065Y-181853152D02*
X141651541Y-181853152D01*
X141651541Y-181853152D02*
X141746779Y-181900771D01*
X142318208Y-182519819D02*
X142222970Y-182472200D01*
X142222970Y-182472200D02*
X142175351Y-182424580D01*
X142175351Y-182424580D02*
X142127732Y-182329342D01*
X142127732Y-182329342D02*
X142127732Y-182043628D01*
X142127732Y-182043628D02*
X142175351Y-181948390D01*
X142175351Y-181948390D02*
X142222970Y-181900771D01*
X142222970Y-181900771D02*
X142318208Y-181853152D01*
X142318208Y-181853152D02*
X142461065Y-181853152D01*
X142461065Y-181853152D02*
X142556303Y-181900771D01*
X142556303Y-181900771D02*
X142603922Y-181948390D01*
X142603922Y-181948390D02*
X142651541Y-182043628D01*
X142651541Y-182043628D02*
X142651541Y-182329342D01*
X142651541Y-182329342D02*
X142603922Y-182424580D01*
X142603922Y-182424580D02*
X142556303Y-182472200D01*
X142556303Y-182472200D02*
X142461065Y-182519819D01*
X142461065Y-182519819D02*
X142318208Y-182519819D01*
X143080113Y-182519819D02*
X143080113Y-181853152D01*
X143080113Y-182043628D02*
X143127732Y-181948390D01*
X143127732Y-181948390D02*
X143175351Y-181900771D01*
X143175351Y-181900771D02*
X143270589Y-181853152D01*
X143270589Y-181853152D02*
X143365827Y-181853152D01*
X144080113Y-182472200D02*
X143984875Y-182519819D01*
X143984875Y-182519819D02*
X143794399Y-182519819D01*
X143794399Y-182519819D02*
X143699161Y-182472200D01*
X143699161Y-182472200D02*
X143651542Y-182376961D01*
X143651542Y-182376961D02*
X143651542Y-181996009D01*
X143651542Y-181996009D02*
X143699161Y-181900771D01*
X143699161Y-181900771D02*
X143794399Y-181853152D01*
X143794399Y-181853152D02*
X143984875Y-181853152D01*
X143984875Y-181853152D02*
X144080113Y-181900771D01*
X144080113Y-181900771D02*
X144127732Y-181996009D01*
X144127732Y-181996009D02*
X144127732Y-182091247D01*
X144127732Y-182091247D02*
X143651542Y-182186485D01*
X139541541Y-10563152D02*
X139779636Y-11229819D01*
X139779636Y-11229819D02*
X140017731Y-10563152D01*
X140351065Y-11182200D02*
X140446303Y-11229819D01*
X140446303Y-11229819D02*
X140636779Y-11229819D01*
X140636779Y-11229819D02*
X140732017Y-11182200D01*
X140732017Y-11182200D02*
X140779636Y-11086961D01*
X140779636Y-11086961D02*
X140779636Y-11039342D01*
X140779636Y-11039342D02*
X140732017Y-10944104D01*
X140732017Y-10944104D02*
X140636779Y-10896485D01*
X140636779Y-10896485D02*
X140493922Y-10896485D01*
X140493922Y-10896485D02*
X140398684Y-10848866D01*
X140398684Y-10848866D02*
X140351065Y-10753628D01*
X140351065Y-10753628D02*
X140351065Y-10706009D01*
X140351065Y-10706009D02*
X140398684Y-10610771D01*
X140398684Y-10610771D02*
X140493922Y-10563152D01*
X140493922Y-10563152D02*
X140636779Y-10563152D01*
X140636779Y-10563152D02*
X140732017Y-10610771D01*
X141636779Y-11182200D02*
X141541541Y-11229819D01*
X141541541Y-11229819D02*
X141351065Y-11229819D01*
X141351065Y-11229819D02*
X141255827Y-11182200D01*
X141255827Y-11182200D02*
X141208208Y-11134580D01*
X141208208Y-11134580D02*
X141160589Y-11039342D01*
X141160589Y-11039342D02*
X141160589Y-10753628D01*
X141160589Y-10753628D02*
X141208208Y-10658390D01*
X141208208Y-10658390D02*
X141255827Y-10610771D01*
X141255827Y-10610771D02*
X141351065Y-10563152D01*
X141351065Y-10563152D02*
X141541541Y-10563152D01*
X141541541Y-10563152D02*
X141636779Y-10610771D01*
X142208208Y-11229819D02*
X142112970Y-11182200D01*
X142112970Y-11182200D02*
X142065351Y-11134580D01*
X142065351Y-11134580D02*
X142017732Y-11039342D01*
X142017732Y-11039342D02*
X142017732Y-10753628D01*
X142017732Y-10753628D02*
X142065351Y-10658390D01*
X142065351Y-10658390D02*
X142112970Y-10610771D01*
X142112970Y-10610771D02*
X142208208Y-10563152D01*
X142208208Y-10563152D02*
X142351065Y-10563152D01*
X142351065Y-10563152D02*
X142446303Y-10610771D01*
X142446303Y-10610771D02*
X142493922Y-10658390D01*
X142493922Y-10658390D02*
X142541541Y-10753628D01*
X142541541Y-10753628D02*
X142541541Y-11039342D01*
X142541541Y-11039342D02*
X142493922Y-11134580D01*
X142493922Y-11134580D02*
X142446303Y-11182200D01*
X142446303Y-11182200D02*
X142351065Y-11229819D01*
X142351065Y-11229819D02*
X142208208Y-11229819D01*
X142970113Y-11229819D02*
X142970113Y-10563152D01*
X142970113Y-10753628D02*
X143017732Y-10658390D01*
X143017732Y-10658390D02*
X143065351Y-10610771D01*
X143065351Y-10610771D02*
X143160589Y-10563152D01*
X143160589Y-10563152D02*
X143255827Y-10563152D01*
X143970113Y-11182200D02*
X143874875Y-11229819D01*
X143874875Y-11229819D02*
X143684399Y-11229819D01*
X143684399Y-11229819D02*
X143589161Y-11182200D01*
X143589161Y-11182200D02*
X143541542Y-11086961D01*
X143541542Y-11086961D02*
X143541542Y-10706009D01*
X143541542Y-10706009D02*
X143589161Y-10610771D01*
X143589161Y-10610771D02*
X143684399Y-10563152D01*
X143684399Y-10563152D02*
X143874875Y-10563152D01*
X143874875Y-10563152D02*
X143970113Y-10610771D01*
X143970113Y-10610771D02*
X144017732Y-10706009D01*
X144017732Y-10706009D02*
X144017732Y-10801247D01*
X144017732Y-10801247D02*
X143541542Y-10896485D01*
M02*
