G04 #@! TF.GenerationSoftware,KiCad,Pcbnew,7.0.10*
G04 #@! TF.CreationDate,2024-06-25T17:36:47-05:00*
G04 #@! TF.ProjectId,DMClockPanel,444d436c-6f63-46b5-9061-6e656c2e6b69,rev?*
G04 #@! TF.SameCoordinates,Original*
G04 #@! TF.FileFunction,OtherDrawing,Comment*
%FSLAX46Y46*%
G04 Gerber Fmt 4.6, Leading zero omitted, Abs format (unit mm)*
G04 Created by KiCad (PCBNEW 7.0.10) date 2024-06-25 17:36:47*
%MOMM*%
%LPD*%
G01*
G04 APERTURE LIST*
%ADD10C,2.000000*%
%ADD11C,0.150000*%
G04 APERTURE END LIST*
D10*
X201930000Y-12390000D02*
X201930000Y-180650000D01*
X81140000Y-12400000D02*
X81140000Y-180660000D01*
X141590000Y-180680000D02*
X141590000Y-12390000D01*
D11*
X79051541Y-10443152D02*
X79289636Y-11109819D01*
X79289636Y-11109819D02*
X79527731Y-10443152D01*
X79861065Y-11062200D02*
X79956303Y-11109819D01*
X79956303Y-11109819D02*
X80146779Y-11109819D01*
X80146779Y-11109819D02*
X80242017Y-11062200D01*
X80242017Y-11062200D02*
X80289636Y-10966961D01*
X80289636Y-10966961D02*
X80289636Y-10919342D01*
X80289636Y-10919342D02*
X80242017Y-10824104D01*
X80242017Y-10824104D02*
X80146779Y-10776485D01*
X80146779Y-10776485D02*
X80003922Y-10776485D01*
X80003922Y-10776485D02*
X79908684Y-10728866D01*
X79908684Y-10728866D02*
X79861065Y-10633628D01*
X79861065Y-10633628D02*
X79861065Y-10586009D01*
X79861065Y-10586009D02*
X79908684Y-10490771D01*
X79908684Y-10490771D02*
X80003922Y-10443152D01*
X80003922Y-10443152D02*
X80146779Y-10443152D01*
X80146779Y-10443152D02*
X80242017Y-10490771D01*
X81146779Y-11062200D02*
X81051541Y-11109819D01*
X81051541Y-11109819D02*
X80861065Y-11109819D01*
X80861065Y-11109819D02*
X80765827Y-11062200D01*
X80765827Y-11062200D02*
X80718208Y-11014580D01*
X80718208Y-11014580D02*
X80670589Y-10919342D01*
X80670589Y-10919342D02*
X80670589Y-10633628D01*
X80670589Y-10633628D02*
X80718208Y-10538390D01*
X80718208Y-10538390D02*
X80765827Y-10490771D01*
X80765827Y-10490771D02*
X80861065Y-10443152D01*
X80861065Y-10443152D02*
X81051541Y-10443152D01*
X81051541Y-10443152D02*
X81146779Y-10490771D01*
X81718208Y-11109819D02*
X81622970Y-11062200D01*
X81622970Y-11062200D02*
X81575351Y-11014580D01*
X81575351Y-11014580D02*
X81527732Y-10919342D01*
X81527732Y-10919342D02*
X81527732Y-10633628D01*
X81527732Y-10633628D02*
X81575351Y-10538390D01*
X81575351Y-10538390D02*
X81622970Y-10490771D01*
X81622970Y-10490771D02*
X81718208Y-10443152D01*
X81718208Y-10443152D02*
X81861065Y-10443152D01*
X81861065Y-10443152D02*
X81956303Y-10490771D01*
X81956303Y-10490771D02*
X82003922Y-10538390D01*
X82003922Y-10538390D02*
X82051541Y-10633628D01*
X82051541Y-10633628D02*
X82051541Y-10919342D01*
X82051541Y-10919342D02*
X82003922Y-11014580D01*
X82003922Y-11014580D02*
X81956303Y-11062200D01*
X81956303Y-11062200D02*
X81861065Y-11109819D01*
X81861065Y-11109819D02*
X81718208Y-11109819D01*
X82480113Y-11109819D02*
X82480113Y-10443152D01*
X82480113Y-10633628D02*
X82527732Y-10538390D01*
X82527732Y-10538390D02*
X82575351Y-10490771D01*
X82575351Y-10490771D02*
X82670589Y-10443152D01*
X82670589Y-10443152D02*
X82765827Y-10443152D01*
X83480113Y-11062200D02*
X83384875Y-11109819D01*
X83384875Y-11109819D02*
X83194399Y-11109819D01*
X83194399Y-11109819D02*
X83099161Y-11062200D01*
X83099161Y-11062200D02*
X83051542Y-10966961D01*
X83051542Y-10966961D02*
X83051542Y-10586009D01*
X83051542Y-10586009D02*
X83099161Y-10490771D01*
X83099161Y-10490771D02*
X83194399Y-10443152D01*
X83194399Y-10443152D02*
X83384875Y-10443152D01*
X83384875Y-10443152D02*
X83480113Y-10490771D01*
X83480113Y-10490771D02*
X83527732Y-10586009D01*
X83527732Y-10586009D02*
X83527732Y-10681247D01*
X83527732Y-10681247D02*
X83051542Y-10776485D01*
X78721541Y-181663152D02*
X78959636Y-182329819D01*
X78959636Y-182329819D02*
X79197731Y-181663152D01*
X79531065Y-182282200D02*
X79626303Y-182329819D01*
X79626303Y-182329819D02*
X79816779Y-182329819D01*
X79816779Y-182329819D02*
X79912017Y-182282200D01*
X79912017Y-182282200D02*
X79959636Y-182186961D01*
X79959636Y-182186961D02*
X79959636Y-182139342D01*
X79959636Y-182139342D02*
X79912017Y-182044104D01*
X79912017Y-182044104D02*
X79816779Y-181996485D01*
X79816779Y-181996485D02*
X79673922Y-181996485D01*
X79673922Y-181996485D02*
X79578684Y-181948866D01*
X79578684Y-181948866D02*
X79531065Y-181853628D01*
X79531065Y-181853628D02*
X79531065Y-181806009D01*
X79531065Y-181806009D02*
X79578684Y-181710771D01*
X79578684Y-181710771D02*
X79673922Y-181663152D01*
X79673922Y-181663152D02*
X79816779Y-181663152D01*
X79816779Y-181663152D02*
X79912017Y-181710771D01*
X80816779Y-182282200D02*
X80721541Y-182329819D01*
X80721541Y-182329819D02*
X80531065Y-182329819D01*
X80531065Y-182329819D02*
X80435827Y-182282200D01*
X80435827Y-182282200D02*
X80388208Y-182234580D01*
X80388208Y-182234580D02*
X80340589Y-182139342D01*
X80340589Y-182139342D02*
X80340589Y-181853628D01*
X80340589Y-181853628D02*
X80388208Y-181758390D01*
X80388208Y-181758390D02*
X80435827Y-181710771D01*
X80435827Y-181710771D02*
X80531065Y-181663152D01*
X80531065Y-181663152D02*
X80721541Y-181663152D01*
X80721541Y-181663152D02*
X80816779Y-181710771D01*
X81388208Y-182329819D02*
X81292970Y-182282200D01*
X81292970Y-182282200D02*
X81245351Y-182234580D01*
X81245351Y-182234580D02*
X81197732Y-182139342D01*
X81197732Y-182139342D02*
X81197732Y-181853628D01*
X81197732Y-181853628D02*
X81245351Y-181758390D01*
X81245351Y-181758390D02*
X81292970Y-181710771D01*
X81292970Y-181710771D02*
X81388208Y-181663152D01*
X81388208Y-181663152D02*
X81531065Y-181663152D01*
X81531065Y-181663152D02*
X81626303Y-181710771D01*
X81626303Y-181710771D02*
X81673922Y-181758390D01*
X81673922Y-181758390D02*
X81721541Y-181853628D01*
X81721541Y-181853628D02*
X81721541Y-182139342D01*
X81721541Y-182139342D02*
X81673922Y-182234580D01*
X81673922Y-182234580D02*
X81626303Y-182282200D01*
X81626303Y-182282200D02*
X81531065Y-182329819D01*
X81531065Y-182329819D02*
X81388208Y-182329819D01*
X82150113Y-182329819D02*
X82150113Y-181663152D01*
X82150113Y-181853628D02*
X82197732Y-181758390D01*
X82197732Y-181758390D02*
X82245351Y-181710771D01*
X82245351Y-181710771D02*
X82340589Y-181663152D01*
X82340589Y-181663152D02*
X82435827Y-181663152D01*
X83150113Y-182282200D02*
X83054875Y-182329819D01*
X83054875Y-182329819D02*
X82864399Y-182329819D01*
X82864399Y-182329819D02*
X82769161Y-182282200D01*
X82769161Y-182282200D02*
X82721542Y-182186961D01*
X82721542Y-182186961D02*
X82721542Y-181806009D01*
X82721542Y-181806009D02*
X82769161Y-181710771D01*
X82769161Y-181710771D02*
X82864399Y-181663152D01*
X82864399Y-181663152D02*
X83054875Y-181663152D01*
X83054875Y-181663152D02*
X83150113Y-181710771D01*
X83150113Y-181710771D02*
X83197732Y-181806009D01*
X83197732Y-181806009D02*
X83197732Y-181901247D01*
X83197732Y-181901247D02*
X82721542Y-181996485D01*
X139651541Y-181853152D02*
X139889636Y-182519819D01*
X139889636Y-182519819D02*
X140127731Y-181853152D01*
X140461065Y-182472200D02*
X140556303Y-182519819D01*
X140556303Y-182519819D02*
X140746779Y-182519819D01*
X140746779Y-182519819D02*
X140842017Y-182472200D01*
X140842017Y-182472200D02*
X140889636Y-182376961D01*
X140889636Y-182376961D02*
X140889636Y-182329342D01*
X140889636Y-182329342D02*
X140842017Y-182234104D01*
X140842017Y-182234104D02*
X140746779Y-182186485D01*
X140746779Y-182186485D02*
X140603922Y-182186485D01*
X140603922Y-182186485D02*
X140508684Y-182138866D01*
X140508684Y-182138866D02*
X140461065Y-182043628D01*
X140461065Y-182043628D02*
X140461065Y-181996009D01*
X140461065Y-181996009D02*
X140508684Y-181900771D01*
X140508684Y-181900771D02*
X140603922Y-181853152D01*
X140603922Y-181853152D02*
X140746779Y-181853152D01*
X140746779Y-181853152D02*
X140842017Y-181900771D01*
X141746779Y-182472200D02*
X141651541Y-182519819D01*
X141651541Y-182519819D02*
X141461065Y-182519819D01*
X141461065Y-182519819D02*
X141365827Y-182472200D01*
X141365827Y-182472200D02*
X141318208Y-182424580D01*
X141318208Y-182424580D02*
X141270589Y-182329342D01*
X141270589Y-182329342D02*
X141270589Y-182043628D01*
X141270589Y-182043628D02*
X141318208Y-181948390D01*
X141318208Y-181948390D02*
X141365827Y-181900771D01*
X141365827Y-181900771D02*
X141461065Y-181853152D01*
X141461065Y-181853152D02*
X141651541Y-181853152D01*
X141651541Y-181853152D02*
X141746779Y-181900771D01*
X142318208Y-182519819D02*
X142222970Y-182472200D01*
X142222970Y-182472200D02*
X142175351Y-182424580D01*
X142175351Y-182424580D02*
X142127732Y-182329342D01*
X142127732Y-182329342D02*
X142127732Y-182043628D01*
X142127732Y-182043628D02*
X142175351Y-181948390D01*
X142175351Y-181948390D02*
X142222970Y-181900771D01*
X142222970Y-181900771D02*
X142318208Y-181853152D01*
X142318208Y-181853152D02*
X142461065Y-181853152D01*
X142461065Y-181853152D02*
X142556303Y-181900771D01*
X142556303Y-181900771D02*
X142603922Y-181948390D01*
X142603922Y-181948390D02*
X142651541Y-182043628D01*
X142651541Y-182043628D02*
X142651541Y-182329342D01*
X142651541Y-182329342D02*
X142603922Y-182424580D01*
X142603922Y-182424580D02*
X142556303Y-182472200D01*
X142556303Y-182472200D02*
X142461065Y-182519819D01*
X142461065Y-182519819D02*
X142318208Y-182519819D01*
X143080113Y-182519819D02*
X143080113Y-181853152D01*
X143080113Y-182043628D02*
X143127732Y-181948390D01*
X143127732Y-181948390D02*
X143175351Y-181900771D01*
X143175351Y-181900771D02*
X143270589Y-181853152D01*
X143270589Y-181853152D02*
X143365827Y-181853152D01*
X144080113Y-182472200D02*
X143984875Y-182519819D01*
X143984875Y-182519819D02*
X143794399Y-182519819D01*
X143794399Y-182519819D02*
X143699161Y-182472200D01*
X143699161Y-182472200D02*
X143651542Y-182376961D01*
X143651542Y-182376961D02*
X143651542Y-181996009D01*
X143651542Y-181996009D02*
X143699161Y-181900771D01*
X143699161Y-181900771D02*
X143794399Y-181853152D01*
X143794399Y-181853152D02*
X143984875Y-181853152D01*
X143984875Y-181853152D02*
X144080113Y-181900771D01*
X144080113Y-181900771D02*
X144127732Y-181996009D01*
X144127732Y-181996009D02*
X144127732Y-182091247D01*
X144127732Y-182091247D02*
X143651542Y-182186485D01*
X199841541Y-10403152D02*
X200079636Y-11069819D01*
X200079636Y-11069819D02*
X200317731Y-10403152D01*
X200651065Y-11022200D02*
X200746303Y-11069819D01*
X200746303Y-11069819D02*
X200936779Y-11069819D01*
X200936779Y-11069819D02*
X201032017Y-11022200D01*
X201032017Y-11022200D02*
X201079636Y-10926961D01*
X201079636Y-10926961D02*
X201079636Y-10879342D01*
X201079636Y-10879342D02*
X201032017Y-10784104D01*
X201032017Y-10784104D02*
X200936779Y-10736485D01*
X200936779Y-10736485D02*
X200793922Y-10736485D01*
X200793922Y-10736485D02*
X200698684Y-10688866D01*
X200698684Y-10688866D02*
X200651065Y-10593628D01*
X200651065Y-10593628D02*
X200651065Y-10546009D01*
X200651065Y-10546009D02*
X200698684Y-10450771D01*
X200698684Y-10450771D02*
X200793922Y-10403152D01*
X200793922Y-10403152D02*
X200936779Y-10403152D01*
X200936779Y-10403152D02*
X201032017Y-10450771D01*
X201936779Y-11022200D02*
X201841541Y-11069819D01*
X201841541Y-11069819D02*
X201651065Y-11069819D01*
X201651065Y-11069819D02*
X201555827Y-11022200D01*
X201555827Y-11022200D02*
X201508208Y-10974580D01*
X201508208Y-10974580D02*
X201460589Y-10879342D01*
X201460589Y-10879342D02*
X201460589Y-10593628D01*
X201460589Y-10593628D02*
X201508208Y-10498390D01*
X201508208Y-10498390D02*
X201555827Y-10450771D01*
X201555827Y-10450771D02*
X201651065Y-10403152D01*
X201651065Y-10403152D02*
X201841541Y-10403152D01*
X201841541Y-10403152D02*
X201936779Y-10450771D01*
X202508208Y-11069819D02*
X202412970Y-11022200D01*
X202412970Y-11022200D02*
X202365351Y-10974580D01*
X202365351Y-10974580D02*
X202317732Y-10879342D01*
X202317732Y-10879342D02*
X202317732Y-10593628D01*
X202317732Y-10593628D02*
X202365351Y-10498390D01*
X202365351Y-10498390D02*
X202412970Y-10450771D01*
X202412970Y-10450771D02*
X202508208Y-10403152D01*
X202508208Y-10403152D02*
X202651065Y-10403152D01*
X202651065Y-10403152D02*
X202746303Y-10450771D01*
X202746303Y-10450771D02*
X202793922Y-10498390D01*
X202793922Y-10498390D02*
X202841541Y-10593628D01*
X202841541Y-10593628D02*
X202841541Y-10879342D01*
X202841541Y-10879342D02*
X202793922Y-10974580D01*
X202793922Y-10974580D02*
X202746303Y-11022200D01*
X202746303Y-11022200D02*
X202651065Y-11069819D01*
X202651065Y-11069819D02*
X202508208Y-11069819D01*
X203270113Y-11069819D02*
X203270113Y-10403152D01*
X203270113Y-10593628D02*
X203317732Y-10498390D01*
X203317732Y-10498390D02*
X203365351Y-10450771D01*
X203365351Y-10450771D02*
X203460589Y-10403152D01*
X203460589Y-10403152D02*
X203555827Y-10403152D01*
X204270113Y-11022200D02*
X204174875Y-11069819D01*
X204174875Y-11069819D02*
X203984399Y-11069819D01*
X203984399Y-11069819D02*
X203889161Y-11022200D01*
X203889161Y-11022200D02*
X203841542Y-10926961D01*
X203841542Y-10926961D02*
X203841542Y-10546009D01*
X203841542Y-10546009D02*
X203889161Y-10450771D01*
X203889161Y-10450771D02*
X203984399Y-10403152D01*
X203984399Y-10403152D02*
X204174875Y-10403152D01*
X204174875Y-10403152D02*
X204270113Y-10450771D01*
X204270113Y-10450771D02*
X204317732Y-10546009D01*
X204317732Y-10546009D02*
X204317732Y-10641247D01*
X204317732Y-10641247D02*
X203841542Y-10736485D01*
X199681541Y-181883152D02*
X199919636Y-182549819D01*
X199919636Y-182549819D02*
X200157731Y-181883152D01*
X200491065Y-182502200D02*
X200586303Y-182549819D01*
X200586303Y-182549819D02*
X200776779Y-182549819D01*
X200776779Y-182549819D02*
X200872017Y-182502200D01*
X200872017Y-182502200D02*
X200919636Y-182406961D01*
X200919636Y-182406961D02*
X200919636Y-182359342D01*
X200919636Y-182359342D02*
X200872017Y-182264104D01*
X200872017Y-182264104D02*
X200776779Y-182216485D01*
X200776779Y-182216485D02*
X200633922Y-182216485D01*
X200633922Y-182216485D02*
X200538684Y-182168866D01*
X200538684Y-182168866D02*
X200491065Y-182073628D01*
X200491065Y-182073628D02*
X200491065Y-182026009D01*
X200491065Y-182026009D02*
X200538684Y-181930771D01*
X200538684Y-181930771D02*
X200633922Y-181883152D01*
X200633922Y-181883152D02*
X200776779Y-181883152D01*
X200776779Y-181883152D02*
X200872017Y-181930771D01*
X201776779Y-182502200D02*
X201681541Y-182549819D01*
X201681541Y-182549819D02*
X201491065Y-182549819D01*
X201491065Y-182549819D02*
X201395827Y-182502200D01*
X201395827Y-182502200D02*
X201348208Y-182454580D01*
X201348208Y-182454580D02*
X201300589Y-182359342D01*
X201300589Y-182359342D02*
X201300589Y-182073628D01*
X201300589Y-182073628D02*
X201348208Y-181978390D01*
X201348208Y-181978390D02*
X201395827Y-181930771D01*
X201395827Y-181930771D02*
X201491065Y-181883152D01*
X201491065Y-181883152D02*
X201681541Y-181883152D01*
X201681541Y-181883152D02*
X201776779Y-181930771D01*
X202348208Y-182549819D02*
X202252970Y-182502200D01*
X202252970Y-182502200D02*
X202205351Y-182454580D01*
X202205351Y-182454580D02*
X202157732Y-182359342D01*
X202157732Y-182359342D02*
X202157732Y-182073628D01*
X202157732Y-182073628D02*
X202205351Y-181978390D01*
X202205351Y-181978390D02*
X202252970Y-181930771D01*
X202252970Y-181930771D02*
X202348208Y-181883152D01*
X202348208Y-181883152D02*
X202491065Y-181883152D01*
X202491065Y-181883152D02*
X202586303Y-181930771D01*
X202586303Y-181930771D02*
X202633922Y-181978390D01*
X202633922Y-181978390D02*
X202681541Y-182073628D01*
X202681541Y-182073628D02*
X202681541Y-182359342D01*
X202681541Y-182359342D02*
X202633922Y-182454580D01*
X202633922Y-182454580D02*
X202586303Y-182502200D01*
X202586303Y-182502200D02*
X202491065Y-182549819D01*
X202491065Y-182549819D02*
X202348208Y-182549819D01*
X203110113Y-182549819D02*
X203110113Y-181883152D01*
X203110113Y-182073628D02*
X203157732Y-181978390D01*
X203157732Y-181978390D02*
X203205351Y-181930771D01*
X203205351Y-181930771D02*
X203300589Y-181883152D01*
X203300589Y-181883152D02*
X203395827Y-181883152D01*
X204110113Y-182502200D02*
X204014875Y-182549819D01*
X204014875Y-182549819D02*
X203824399Y-182549819D01*
X203824399Y-182549819D02*
X203729161Y-182502200D01*
X203729161Y-182502200D02*
X203681542Y-182406961D01*
X203681542Y-182406961D02*
X203681542Y-182026009D01*
X203681542Y-182026009D02*
X203729161Y-181930771D01*
X203729161Y-181930771D02*
X203824399Y-181883152D01*
X203824399Y-181883152D02*
X204014875Y-181883152D01*
X204014875Y-181883152D02*
X204110113Y-181930771D01*
X204110113Y-181930771D02*
X204157732Y-182026009D01*
X204157732Y-182026009D02*
X204157732Y-182121247D01*
X204157732Y-182121247D02*
X203681542Y-182216485D01*
X139541541Y-10563152D02*
X139779636Y-11229819D01*
X139779636Y-11229819D02*
X140017731Y-10563152D01*
X140351065Y-11182200D02*
X140446303Y-11229819D01*
X140446303Y-11229819D02*
X140636779Y-11229819D01*
X140636779Y-11229819D02*
X140732017Y-11182200D01*
X140732017Y-11182200D02*
X140779636Y-11086961D01*
X140779636Y-11086961D02*
X140779636Y-11039342D01*
X140779636Y-11039342D02*
X140732017Y-10944104D01*
X140732017Y-10944104D02*
X140636779Y-10896485D01*
X140636779Y-10896485D02*
X140493922Y-10896485D01*
X140493922Y-10896485D02*
X140398684Y-10848866D01*
X140398684Y-10848866D02*
X140351065Y-10753628D01*
X140351065Y-10753628D02*
X140351065Y-10706009D01*
X140351065Y-10706009D02*
X140398684Y-10610771D01*
X140398684Y-10610771D02*
X140493922Y-10563152D01*
X140493922Y-10563152D02*
X140636779Y-10563152D01*
X140636779Y-10563152D02*
X140732017Y-10610771D01*
X141636779Y-11182200D02*
X141541541Y-11229819D01*
X141541541Y-11229819D02*
X141351065Y-11229819D01*
X141351065Y-11229819D02*
X141255827Y-11182200D01*
X141255827Y-11182200D02*
X141208208Y-11134580D01*
X141208208Y-11134580D02*
X141160589Y-11039342D01*
X141160589Y-11039342D02*
X141160589Y-10753628D01*
X141160589Y-10753628D02*
X141208208Y-10658390D01*
X141208208Y-10658390D02*
X141255827Y-10610771D01*
X141255827Y-10610771D02*
X141351065Y-10563152D01*
X141351065Y-10563152D02*
X141541541Y-10563152D01*
X141541541Y-10563152D02*
X141636779Y-10610771D01*
X142208208Y-11229819D02*
X142112970Y-11182200D01*
X142112970Y-11182200D02*
X142065351Y-11134580D01*
X142065351Y-11134580D02*
X142017732Y-11039342D01*
X142017732Y-11039342D02*
X142017732Y-10753628D01*
X142017732Y-10753628D02*
X142065351Y-10658390D01*
X142065351Y-10658390D02*
X142112970Y-10610771D01*
X142112970Y-10610771D02*
X142208208Y-10563152D01*
X142208208Y-10563152D02*
X142351065Y-10563152D01*
X142351065Y-10563152D02*
X142446303Y-10610771D01*
X142446303Y-10610771D02*
X142493922Y-10658390D01*
X142493922Y-10658390D02*
X142541541Y-10753628D01*
X142541541Y-10753628D02*
X142541541Y-11039342D01*
X142541541Y-11039342D02*
X142493922Y-11134580D01*
X142493922Y-11134580D02*
X142446303Y-11182200D01*
X142446303Y-11182200D02*
X142351065Y-11229819D01*
X142351065Y-11229819D02*
X142208208Y-11229819D01*
X142970113Y-11229819D02*
X142970113Y-10563152D01*
X142970113Y-10753628D02*
X143017732Y-10658390D01*
X143017732Y-10658390D02*
X143065351Y-10610771D01*
X143065351Y-10610771D02*
X143160589Y-10563152D01*
X143160589Y-10563152D02*
X143255827Y-10563152D01*
X143970113Y-11182200D02*
X143874875Y-11229819D01*
X143874875Y-11229819D02*
X143684399Y-11229819D01*
X143684399Y-11229819D02*
X143589161Y-11182200D01*
X143589161Y-11182200D02*
X143541542Y-11086961D01*
X143541542Y-11086961D02*
X143541542Y-10706009D01*
X143541542Y-10706009D02*
X143589161Y-10610771D01*
X143589161Y-10610771D02*
X143684399Y-10563152D01*
X143684399Y-10563152D02*
X143874875Y-10563152D01*
X143874875Y-10563152D02*
X143970113Y-10610771D01*
X143970113Y-10610771D02*
X144017732Y-10706009D01*
X144017732Y-10706009D02*
X144017732Y-10801247D01*
X144017732Y-10801247D02*
X143541542Y-10896485D01*
M02*
