M48
INCH,TZ
T1C0.0157
T2C0.0276
T3C0.0295
T4C0.0315
T5C0.0330
T6C0.0354
T7C0.0394
T8C0.0469
T9C0.0591
T10C0.0598
%
G90
G05
T1
X9817Y-57628
X10067Y-59878
X10067Y-60878
X10892Y-55628
X11031Y-57378
X11031Y-59378
X11031Y-61628
X11317Y-69378
X11817Y-66878
X12317Y-34628
X13817Y-52128
X14567Y-42628
X15067Y-55378
X15477Y-54538
X15817Y-40878
X16567Y-52128
X16567Y-58628
X16817Y-56128
X16817Y-62378
X17067Y-45128
X17567Y-59128
X18067Y-38628
X18067Y-49105
X18122Y-40878
X18490Y-38455
X18567Y-40628
X18817Y-37878
X19067Y-55378
X19067Y-55878
X19567Y-40628
X19817Y-46128
X19817Y-59878
X20317Y-48128
X20567Y-35128
X20567Y-40628
X20567Y-57628
X20817Y-53128
X21067Y-47378
X21817Y-59878
X22067Y-64878
X22317Y-59628
X22567Y-52628
X22567Y-53378
X22567Y-55878
X22817Y-59128
X24567Y-59628
X25317Y-65878
X26567Y-53128
X26567Y-55878
X26817Y-32878
X27817Y-33628
X28067Y-53128
X29067Y-33628
X33604Y-57628
X33854Y-59878
X33854Y-60878
X34679Y-55628
X34819Y-57378
X34819Y-59378
X34819Y-61628
X35104Y-69378
X35604Y-66878
X36104Y-34628
X37604Y-52128
X38354Y-42628
X38854Y-55378
X39265Y-54538
X39604Y-40878
X40354Y-52128
X40354Y-58628
X40604Y-56128
X40604Y-62378
X40854Y-45128
X41354Y-59128
X41854Y-38628
X41854Y-49105
X41909Y-40878
X42277Y-38455
X42354Y-40628
X42604Y-37878
X42854Y-55378
X42854Y-55878
X43354Y-40628
X43604Y-46128
X43604Y-59878
X44104Y-48128
X44354Y-35128
X44354Y-40628
X44354Y-57628
X44604Y-53128
X44854Y-47378
X45604Y-59878
X45854Y-64878
X46104Y-59628
X46354Y-52628
X46354Y-53378
X46354Y-55878
X46604Y-59128
X48354Y-59628
X49104Y-65878
X50354Y-53128
X50354Y-55878
X50604Y-32878
X51604Y-33628
X51854Y-53128
X52854Y-33628
X57611Y-68379
X58361Y-9353
X58361Y-16603
X58611Y-51353
X58611Y-53603
X59111Y-41353
X59111Y-70353
X59361Y-23353
X60361Y-54353
X60611Y-5853
X60611Y-38353
X60861Y-46603
X61111Y-61353
X61111Y-68103
X61111Y-68853
X61111Y-69603
X61111Y-70353
X61861Y-30103
X63111Y-14853
X66111Y-33353
X66111Y-55353
X66611Y-41103
X66861Y-57603
X67111Y-19103
X67111Y-42853
X67111Y-58353
X67243Y-25221
X67361Y-26353
X67361Y-55103
X67611Y-56603
X67700Y-17514
X68111Y-20103
X68111Y-33103
X68361Y-24353
X68361Y-50853
X68861Y-10879
X69123Y-56616
X69611Y-14603
X69611Y-57853
X69861Y-40103
X70360Y-39046
X70361Y-15103
X70361Y-15603
X70361Y-39353
X70445Y-44917
X70567Y-45310
X70611Y-13129
X70611Y-37103
X70611Y-38103
X70611Y-38416
X70611Y-52435
X70611Y-53103
X70611Y-53603
X70700Y-37471
X70717Y-19031
X70861Y-31103
X70861Y-51805
X70927Y-53695
X70937Y-30680
X71095Y-43838
X71111Y-13353
X71361Y-35853
X71361Y-40603
X71361Y-43103
X71361Y-51353
X71361Y-62103
X71361Y-64520
X71486Y-27728
X71539Y-48425
X71611Y-49353
X71629Y-42800
X71861Y-9353
X71861Y-11103
X71861Y-11853
X71861Y-41353
X71861Y-56603
X71861Y-65353
X71950Y-41764
X71951Y-22603
X72111Y-33853
X72111Y-35103
X72111Y-53853
X72221Y-18544
X72254Y-22478
X72361Y-50353
X72361Y-56853
X72361Y-57853
X72536Y-18353
X72557Y-22603
X72611Y-34853
X72611Y-53603
X72611Y-54353
X72611Y-54853
X72851Y-17103
X72851Y-13603
X72861Y-8603
X72861Y-65853
X73111Y-22353
X73111Y-50353
X73111Y-53353
X73154Y-17103
X73177Y-24403
X73361Y-10603
X73457Y-13603
X73469Y-17103
X73481Y-24224
X73611Y-66103
X73784Y-17103
X73796Y-24103
X73859Y-45103
X73861Y-20879
X73861Y-42603
X73861Y-43353
X73861Y-52353
X74111Y-13603
X74111Y-17103
X74111Y-25353
X74111Y-26603
X74111Y-65103
X74183Y-42965
X74361Y-21103
X74377Y-21603
X74414Y-17103
X74544Y-34353
X74567Y-62353
X74611Y-69103
X74611Y-69603
X74611Y-70103
X74611Y-70603
X74717Y-13603
X74728Y-17103
X74861Y-20853
X74861Y-23853
X74861Y-36603
X74861Y-37416
X74914Y-27407
X74914Y-31603
X75111Y-37853
X75111Y-38629
X75111Y-48353
X75124Y-44117
X75223Y-61584
X75343Y-39353
X75361Y-6353
X75361Y-22603
X75361Y-54853
X75396Y-47353
X75611Y-26353
X75611Y-56103
X75861Y-50603
X76111Y-20103
X76111Y-32103
X76111Y-35603
X76294Y-53016
X76319Y-49305
X76361Y-15353
X76361Y-28603
X76575Y-39853
X76575Y-49603
X76611Y-70353
X76861Y-22353
X76861Y-37853
X76861Y-39353
X76861Y-46603
X76861Y-47103
X76935Y-51603
X77146Y-37103
X77146Y-50603
X77215Y-52499
X77325Y-43853
X77361Y-15353
X77361Y-21353
X77611Y-9353
X77611Y-29603
X77611Y-30853
X77611Y-47603
X77611Y-54353
X77861Y-20853
X78075Y-37353
X78075Y-39603
X78111Y-13603
X78361Y-21603
X78361Y-68603
X81398Y-68379
X82148Y-9353
X82148Y-16603
X82398Y-51353
X82398Y-53603
X82898Y-41353
X82898Y-70353
X83148Y-23353
X84148Y-54353
X84398Y-5853
X84398Y-38353
X84648Y-46603
X84898Y-61353
X84898Y-68103
X84898Y-68853
X84898Y-69603
X84898Y-70353
X85648Y-30103
X86898Y-14853
X89898Y-33353
X89898Y-55353
X90398Y-41103
X90648Y-57603
X90898Y-19103
X90898Y-42853
X90898Y-58353
X91030Y-25221
X91148Y-26353
X91148Y-55103
X91398Y-56603
X91487Y-17514
X91898Y-20103
X91898Y-33103
X92148Y-24353
X92148Y-50853
X92648Y-10879
X92911Y-56616
X93398Y-14603
X93398Y-57853
X93648Y-40103
X94148Y-39046
X94148Y-15103
X94148Y-15603
X94148Y-39353
X94233Y-44917
X94355Y-45310
X94398Y-13129
X94398Y-37103
X94398Y-38103
X94398Y-38416
X94398Y-52435
X94398Y-53103
X94398Y-53603
X94487Y-37471
X94504Y-19031
X94648Y-31103
X94648Y-51805
X94714Y-53695
X94724Y-30680
X94882Y-43838
X94898Y-13353
X95148Y-35853
X95148Y-40603
X95148Y-43103
X95148Y-51353
X95148Y-62103
X95148Y-64520
X95273Y-27728
X95327Y-48425
X95398Y-49353
X95417Y-42800
X95648Y-9353
X95648Y-11103
X95648Y-11853
X95648Y-41353
X95648Y-56603
X95648Y-65353
X95737Y-41764
X95739Y-22603
X95898Y-33853
X95898Y-35103
X95898Y-53853
X96008Y-18544
X96042Y-22478
X96148Y-50353
X96148Y-56853
X96148Y-57853
X96323Y-18353
X96345Y-22603
X96398Y-34853
X96398Y-53603
X96398Y-54353
X96398Y-54853
X96638Y-17103
X96638Y-13603
X96648Y-8603
X96648Y-65853
X96898Y-22353
X96898Y-50353
X96898Y-53353
X96941Y-17103
X96965Y-24403
X97148Y-10603
X97244Y-13603
X97256Y-17103
X97268Y-24224
X97398Y-66103
X97571Y-17103
X97583Y-24103
X97646Y-45103
X97648Y-20879
X97648Y-42603
X97648Y-43353
X97648Y-52353
X97898Y-13603
X97898Y-17103
X97898Y-25353
X97898Y-26603
X97898Y-65103
X97971Y-42965
X98148Y-21103
X98165Y-21603
X98201Y-17103
X98331Y-34353
X98355Y-62353
X98398Y-69103
X98398Y-69603
X98398Y-70103
X98398Y-70603
X98504Y-13603
X98516Y-17103
X98648Y-20853
X98648Y-23853
X98648Y-36603
X98648Y-37416
X98701Y-27407
X98701Y-31603
X98898Y-37853
X98898Y-38629
X98898Y-48353
X98911Y-44117
X99010Y-61584
X99130Y-39353
X99148Y-6353
X99148Y-22603
X99148Y-54853
X99183Y-47353
X99398Y-26353
X99398Y-56103
X99648Y-50603
X99898Y-20103
X99898Y-32103
X99898Y-35603
X100082Y-53016
X100106Y-49305
X100148Y-15353
X100148Y-28603
X100363Y-39853
X100363Y-49603
X100398Y-70353
X100648Y-22353
X100648Y-37853
X100648Y-39353
X100648Y-46603
X100648Y-47103
X100723Y-51603
X100933Y-37103
X100933Y-50603
X101003Y-52499
X101113Y-43853
X101148Y-15353
X101148Y-21353
X101398Y-9353
X101398Y-29603
X101398Y-30853
X101398Y-47603
X101398Y-54353
X101648Y-20853
X101863Y-37353
X101863Y-39603
X101898Y-13603
X102148Y-21603
X102148Y-68603
T2
X11817Y-58378
X11837Y-56898
X11837Y-59878
X12567Y-54628
X12567Y-55628
X12817Y-58378
X12837Y-56898
X12837Y-59878
X14567Y-34148
X14567Y-35148
X15817Y-34148
X15817Y-35148
X16567Y-41648
X16567Y-42648
X17067Y-34108
X17067Y-35108
X17067Y-46648
X17067Y-47648
X17317Y-39358
X17317Y-40358
X17817Y-41589
X17817Y-42589
X18317Y-50628
X18317Y-51628
X19317Y-46648
X19317Y-47648
X19317Y-60648
X19317Y-61648
X19567Y-56898
X19567Y-57898
X21567Y-56898
X21567Y-57898
X22567Y-49608
X22567Y-50608
X25065Y-48853
X26065Y-48853
X35604Y-58378
X35624Y-56898
X35624Y-59878
X36354Y-54628
X36354Y-55628
X36604Y-58378
X36624Y-56898
X36624Y-59878
X38354Y-34148
X38354Y-35148
X39604Y-34148
X39604Y-35148
X40354Y-41648
X40354Y-42648
X40854Y-34108
X40854Y-35108
X40854Y-46648
X40854Y-47648
X41104Y-39358
X41104Y-40358
X41604Y-41589
X41604Y-42589
X42104Y-50628
X42104Y-51628
X43104Y-46648
X43104Y-47648
X43104Y-60648
X43104Y-61648
X43354Y-56898
X43354Y-57898
X45354Y-56898
X45354Y-57898
X46354Y-49608
X46354Y-50608
X48852Y-48853
X49852Y-48853
X61630Y-9603
X61630Y-12103
X61630Y-17353
X61630Y-19853
X61630Y-25103
X61630Y-27603
X61630Y-32853
X61630Y-35353
X61630Y-40603
X61630Y-43103
X61630Y-48353
X61630Y-50853
X61630Y-56103
X61630Y-58603
X61630Y-63853
X61630Y-66353
X62630Y-9603
X62630Y-12103
X62630Y-17353
X62630Y-19853
X62630Y-25103
X62630Y-27603
X62630Y-32853
X62630Y-35353
X62630Y-40603
X62630Y-43103
X62630Y-48353
X62630Y-50853
X62630Y-56103
X62630Y-58603
X62630Y-63853
X62630Y-66353
X72361Y-13373
X72361Y-14373
X72361Y-15334
X72361Y-16334
X72611Y-28373
X72611Y-29373
X72611Y-30334
X72611Y-31334
X72611Y-44873
X72611Y-45873
X72611Y-46834
X72611Y-47834
X72611Y-59623
X72611Y-60623
X72611Y-61584
X72611Y-62584
X85418Y-9603
X85418Y-12103
X85418Y-17353
X85418Y-19853
X85418Y-25103
X85418Y-27603
X85418Y-32853
X85418Y-35353
X85418Y-40603
X85418Y-43103
X85418Y-48353
X85418Y-50853
X85418Y-56103
X85418Y-58603
X85418Y-63853
X85418Y-66353
X86418Y-9603
X86418Y-12103
X86418Y-17353
X86418Y-19853
X86418Y-25103
X86418Y-27603
X86418Y-32853
X86418Y-35353
X86418Y-40603
X86418Y-43103
X86418Y-48353
X86418Y-50853
X86418Y-56103
X86418Y-58603
X86418Y-63853
X86418Y-66353
X96148Y-13373
X96148Y-14373
X96148Y-15334
X96148Y-16334
X96398Y-28373
X96398Y-29373
X96398Y-30334
X96398Y-31334
X96398Y-44873
X96398Y-45873
X96398Y-46834
X96398Y-47834
X96398Y-59623
X96398Y-60623
X96398Y-61584
X96398Y-62584
T3
X23567Y-57378
X24067Y-57378
X24567Y-57378
X27567Y-57378
X28067Y-57378
X28567Y-57378
X47354Y-57378
X47854Y-57378
X48354Y-57378
X51354Y-57378
X51854Y-57378
X52354Y-57378
T4
X9567Y-59878
X9567Y-61453
X9567Y-62240
X9567Y-63028
X19567Y-51628
X19567Y-54628
X20567Y-51628
X20567Y-54628
X21567Y-51628
X21567Y-54628
X22567Y-51628
X22567Y-54628
X23567Y-51628
X23567Y-54628
X24567Y-51628
X24567Y-54628
X25567Y-51628
X25567Y-54628
X26567Y-51628
X26567Y-54628
X27567Y-51628
X27567Y-54628
X28567Y-51628
X28567Y-54628
X33354Y-59878
X33354Y-61453
X33354Y-62240
X33354Y-63028
X43354Y-51628
X43354Y-54628
X44354Y-51628
X44354Y-54628
X45354Y-51628
X45354Y-54628
X46354Y-51628
X46354Y-54628
X47354Y-51628
X47354Y-54628
X48354Y-51628
X48354Y-54628
X49354Y-51628
X49354Y-54628
X50354Y-51628
X50354Y-54628
X51354Y-51628
X51354Y-54628
X52354Y-51628
X52354Y-54628
T5
X65245Y-10270
X65245Y-11436
X65245Y-18020
X65245Y-19186
X65245Y-25770
X65245Y-26936
X65245Y-33520
X65245Y-34686
X65245Y-41270
X65245Y-42436
X65245Y-49020
X65245Y-50186
X65245Y-56770
X65245Y-57936
X65245Y-64520
X65245Y-65686
X65787Y-9237
X65787Y-12469
X65787Y-16987
X65787Y-20219
X65787Y-24737
X65787Y-27969
X65787Y-32487
X65787Y-35719
X65787Y-40237
X65787Y-43469
X65787Y-47987
X65787Y-51219
X65787Y-55737
X65787Y-58969
X65787Y-63487
X65787Y-66719
X66747Y-8575
X66747Y-13131
X66747Y-16325
X66747Y-20881
X66747Y-24075
X66747Y-28631
X66747Y-31825
X66747Y-36381
X66747Y-39575
X66747Y-44131
X66747Y-47325
X66747Y-51881
X66747Y-55075
X66747Y-59631
X66747Y-62825
X66747Y-67381
X67904Y-8434
X67904Y-13272
X67904Y-16184
X67904Y-21022
X67904Y-23934
X67904Y-28772
X67904Y-31684
X67904Y-36522
X67904Y-39434
X67904Y-44272
X67904Y-47184
X67904Y-52022
X67904Y-54934
X67904Y-59772
X67904Y-62684
X67904Y-67522
X68995Y-8848
X68995Y-12858
X68995Y-16598
X68995Y-20608
X68995Y-24348
X68995Y-28358
X68995Y-32098
X68995Y-36108
X68995Y-39848
X68995Y-43858
X68995Y-47598
X68995Y-51608
X68995Y-55348
X68995Y-59358
X68995Y-63098
X68995Y-67108
X69768Y-9721
X69768Y-11985
X69768Y-17471
X69768Y-19735
X69768Y-25221
X69768Y-27485
X69768Y-32971
X69768Y-35235
X69768Y-40721
X69768Y-42985
X69768Y-48471
X69768Y-50735
X69768Y-56221
X69768Y-58485
X69768Y-63971
X69768Y-66235
X70047Y-10853
X70047Y-18603
X70047Y-26353
X70047Y-34103
X70047Y-41853
X70047Y-49603
X70047Y-57353
X70047Y-65103
X89032Y-10270
X89032Y-11436
X89032Y-18020
X89032Y-19186
X89032Y-25770
X89032Y-26936
X89032Y-33520
X89032Y-34686
X89032Y-41270
X89032Y-42436
X89032Y-49020
X89032Y-50186
X89032Y-56770
X89032Y-57936
X89032Y-64520
X89032Y-65686
X89574Y-9237
X89574Y-12469
X89574Y-16987
X89574Y-20219
X89574Y-24737
X89574Y-27969
X89574Y-32487
X89574Y-35719
X89574Y-40237
X89574Y-43469
X89574Y-47987
X89574Y-51219
X89574Y-55737
X89574Y-58969
X89574Y-63487
X89574Y-66719
X90534Y-8575
X90534Y-13131
X90534Y-16325
X90534Y-20881
X90534Y-24075
X90534Y-28631
X90534Y-31825
X90534Y-36381
X90534Y-39575
X90534Y-44131
X90534Y-47325
X90534Y-51881
X90534Y-55075
X90534Y-59631
X90534Y-62825
X90534Y-67381
X91691Y-8434
X91691Y-13272
X91691Y-16184
X91691Y-21022
X91691Y-23934
X91691Y-28772
X91691Y-31684
X91691Y-36522
X91691Y-39434
X91691Y-44272
X91691Y-47184
X91691Y-52022
X91691Y-54934
X91691Y-59772
X91691Y-62684
X91691Y-67522
X92782Y-8848
X92782Y-12858
X92782Y-16598
X92782Y-20608
X92782Y-24348
X92782Y-28358
X92782Y-32098
X92782Y-36108
X92782Y-39848
X92782Y-43858
X92782Y-47598
X92782Y-51608
X92782Y-55348
X92782Y-59358
X92782Y-63098
X92782Y-67108
X93555Y-9721
X93555Y-11985
X93555Y-17471
X93555Y-19735
X93555Y-25221
X93555Y-27485
X93555Y-32971
X93555Y-35235
X93555Y-40721
X93555Y-42985
X93555Y-48471
X93555Y-50735
X93555Y-56221
X93555Y-58485
X93555Y-63971
X93555Y-66235
X93834Y-10853
X93834Y-18603
X93834Y-26353
X93834Y-34103
X93834Y-41853
X93834Y-49603
X93834Y-57353
X93834Y-65103
T6
X9567Y-65976
X9567Y-66764
X9567Y-67551
X15817Y-44217
X15817Y-45217
X23567Y-66628
X23567Y-67628
X23567Y-62217
X23567Y-63217
X26817Y-65894
X26817Y-67862
X26817Y-60628
X26817Y-62596
X33354Y-65976
X33354Y-66764
X33354Y-67551
X39604Y-44217
X39604Y-45217
X47354Y-66628
X47354Y-67628
X47354Y-62217
X47354Y-63217
X50604Y-65894
X50604Y-67862
X50604Y-60628
X50604Y-62596
T7
X11567Y-42628
X11567Y-43628
X11567Y-44628
X11567Y-45628
X11567Y-46628
X11567Y-47628
X11567Y-48628
X14567Y-59630
X14567Y-60630
X19567Y-49105
X19567Y-50105
X20567Y-60878
X20567Y-61878
X21317Y-49126
X21317Y-50126
X22317Y-35628
X22317Y-36628
X22317Y-37628
X22317Y-44626
X22317Y-45626
X23575Y-47368
X23835Y-49103
X23835Y-50103
X24575Y-47368
X26067Y-47378
X27067Y-47378
X35354Y-42628
X35354Y-43628
X35354Y-44628
X35354Y-45628
X35354Y-46628
X35354Y-47628
X35354Y-48628
X38354Y-59630
X38354Y-60630
X43354Y-49105
X43354Y-50105
X44354Y-60878
X44354Y-61878
X45104Y-49126
X45104Y-50126
X46104Y-35628
X46104Y-36628
X46104Y-37628
X46104Y-44626
X46104Y-45626
X47362Y-47368
X47622Y-49103
X47622Y-50103
X48362Y-47368
X49854Y-47378
X50854Y-47378
X76101Y-42596
X76101Y-43596
X76101Y-44596
X76101Y-45596
X76101Y-46596
X76101Y-47596
X76101Y-48596
X99888Y-42596
X99888Y-43596
X99888Y-44596
X99888Y-45596
X99888Y-46596
X99888Y-47596
X99888Y-48596
T8
X10317Y-35005
X10317Y-36005
X34104Y-35005
X34104Y-36005
T9
X9567Y-59051
X9567Y-63854
X9567Y-65150
X9567Y-68378
X33354Y-59051
X33354Y-63854
X33354Y-65150
X33354Y-68378
T10
X17036Y-60378
X17036Y-68445
X40823Y-60378
X40823Y-68445
T7
G00X11817Y-38234
M15
G01X11817Y-39022
M16
G05
G00X12604Y-40478
M15
G01X13392Y-40478
M16
G05
G00X14179Y-38234
M15
G01X14179Y-39022
M16
G05
G00X35604Y-38234
M15
G01X35604Y-39022
M16
G05
G00X36392Y-40478
M15
G01X37179Y-40478
M16
G05
G00X37967Y-38234
M15
G01X37967Y-39022
M16
G05
M30
