G04 #@! TF.GenerationSoftware,KiCad,Pcbnew,7.0.10*
G04 #@! TF.CreationDate,2024-09-23T02:40:38-05:00*
G04 #@! TF.ProjectId,v2Panel,76325061-6e65-46c2-9e6b-696361645f70,rev?*
G04 #@! TF.SameCoordinates,Original*
G04 #@! TF.FileFunction,Soldermask,Top*
G04 #@! TF.FilePolarity,Negative*
%FSLAX46Y46*%
G04 Gerber Fmt 4.6, Leading zero omitted, Abs format (unit mm)*
G04 Created by KiCad (PCBNEW 7.0.10) date 2024-09-23 02:40:38*
%MOMM*%
%LPD*%
G01*
G04 APERTURE LIST*
G04 Aperture macros list*
%AMRoundRect*
0 Rectangle with rounded corners*
0 $1 Rounding radius*
0 $2 $3 $4 $5 $6 $7 $8 $9 X,Y pos of 4 corners*
0 Add a 4 corners polygon primitive as box body*
4,1,4,$2,$3,$4,$5,$6,$7,$8,$9,$2,$3,0*
0 Add four circle primitives for the rounded corners*
1,1,$1+$1,$2,$3*
1,1,$1+$1,$4,$5*
1,1,$1+$1,$6,$7*
1,1,$1+$1,$8,$9*
0 Add four rect primitives between the rounded corners*
20,1,$1+$1,$2,$3,$4,$5,0*
20,1,$1+$1,$4,$5,$6,$7,0*
20,1,$1+$1,$6,$7,$8,$9,0*
20,1,$1+$1,$8,$9,$2,$3,0*%
G04 Aperture macros list end*
%ADD10C,2.200000*%
%ADD11C,1.400000*%
%ADD12O,1.400000X1.400000*%
%ADD13C,2.484000*%
%ADD14R,1.700000X1.700000*%
%ADD15O,1.700000X1.700000*%
%ADD16R,1.600000X1.600000*%
%ADD17O,1.600000X1.600000*%
%ADD18C,2.454000*%
%ADD19RoundRect,0.102000X-1.125000X-1.125000X1.125000X-1.125000X1.125000X1.125000X-1.125000X1.125000X0*%
%ADD20C,1.512000*%
%ADD21R,1.200000X1.200000*%
%ADD22C,1.200000*%
%ADD23C,1.612000*%
%ADD24R,1.800000X1.800000*%
%ADD25O,1.800000X1.800000*%
%ADD26RoundRect,0.250000X0.475000X-0.250000X0.475000X0.250000X-0.475000X0.250000X-0.475000X-0.250000X0*%
%ADD27RoundRect,0.099250X-1.027750X-0.297750X1.027750X-0.297750X1.027750X0.297750X-1.027750X0.297750X0*%
%ADD28RoundRect,0.250000X0.620000X0.845000X-0.620000X0.845000X-0.620000X-0.845000X0.620000X-0.845000X0*%
%ADD29O,1.740000X2.190000*%
%ADD30R,3.500000X3.500000*%
%ADD31RoundRect,0.750000X1.000000X-0.750000X1.000000X0.750000X-1.000000X0.750000X-1.000000X-0.750000X0*%
%ADD32RoundRect,0.875000X0.875000X-0.875000X0.875000X0.875000X-0.875000X0.875000X-0.875000X-0.875000X0*%
%ADD33RoundRect,0.250000X-0.475000X0.250000X-0.475000X-0.250000X0.475000X-0.250000X0.475000X0.250000X0*%
%ADD34R,1.050000X1.500000*%
%ADD35O,1.050000X1.500000*%
%ADD36R,1.500000X1.050000*%
%ADD37O,1.500000X1.050000*%
%ADD38R,3.050000X1.016000*%
%ADD39R,8.380000X10.660000*%
%ADD40RoundRect,0.250000X0.250000X0.475000X-0.250000X0.475000X-0.250000X-0.475000X0.250000X-0.475000X0*%
%ADD41O,2.200000X3.500000*%
%ADD42R,1.500000X2.500000*%
%ADD43O,1.500000X2.500000*%
%ADD44RoundRect,0.102000X-0.825000X0.825000X-0.825000X-0.825000X0.825000X-0.825000X0.825000X0.825000X0*%
%ADD45C,1.854000*%
%ADD46C,1.346200*%
%ADD47C,1.500000*%
%ADD48R,0.500800X1.355600*%
%ADD49R,1.355600X0.500800*%
%ADD50R,6.350000X1.900000*%
G04 APERTURE END LIST*
D10*
X137784897Y-105226827D03*
D11*
X172659897Y-130626827D03*
D12*
X170119897Y-130626827D03*
D13*
X147642806Y-114037632D03*
X168132806Y-114037632D03*
D14*
X174614897Y-149041827D03*
D15*
X174614897Y-151581827D03*
D14*
X179059897Y-106501827D03*
D15*
X179059897Y-103961827D03*
D16*
X182869897Y-138246827D03*
D17*
X182869897Y-135706827D03*
X182869897Y-133166827D03*
X182869897Y-130626827D03*
X182869897Y-128086827D03*
X182869897Y-125546827D03*
X182869897Y-123006827D03*
X182869897Y-120466827D03*
X182869897Y-117926827D03*
X182869897Y-115386827D03*
X175249897Y-115386827D03*
X175249897Y-117926827D03*
X175249897Y-120466827D03*
X175249897Y-123006827D03*
X175249897Y-125546827D03*
X175249897Y-128086827D03*
X175249897Y-130626827D03*
X175249897Y-133166827D03*
X175249897Y-135706827D03*
X175249897Y-138246827D03*
D11*
X185459897Y-135706827D03*
D12*
X187999897Y-135706827D03*
D18*
X149654897Y-146501827D03*
D19*
X128454897Y-146501827D03*
D20*
X174548800Y-157338826D03*
X178548800Y-157338826D03*
X180548800Y-157338826D03*
X182548800Y-157338826D03*
D18*
X172448800Y-157338826D03*
X184648800Y-157338826D03*
D14*
X106669897Y-152216827D03*
D21*
X153024897Y-152851827D03*
D22*
X153024897Y-156351827D03*
D23*
X198704897Y-130626827D03*
X193704897Y-130626827D03*
D11*
X172709897Y-117976827D03*
D12*
X172709897Y-120516827D03*
D24*
X118099897Y-154346827D03*
D25*
X118099897Y-156886827D03*
D11*
X182869897Y-109721827D03*
D12*
X182869897Y-112261827D03*
D11*
X187899897Y-128086827D03*
D12*
X185359897Y-128086827D03*
D11*
X185459897Y-125546827D03*
D12*
X187999897Y-125546827D03*
D11*
X167629897Y-107081827D03*
D12*
X167629897Y-104541827D03*
D26*
X150484897Y-143641827D03*
X150484897Y-141741827D03*
D27*
X155989897Y-127451827D03*
X155989897Y-128721827D03*
X155989897Y-129991827D03*
X155989897Y-131261827D03*
X155989897Y-132531827D03*
X155989897Y-133801827D03*
X155989897Y-135071827D03*
X155989897Y-136341827D03*
X165299897Y-136341827D03*
X165299897Y-135071827D03*
X165299897Y-133801827D03*
X165299897Y-132531827D03*
X165299897Y-131261827D03*
X165299897Y-129991827D03*
X165299897Y-128721827D03*
X165299897Y-127451827D03*
D24*
X194934897Y-139516827D03*
D25*
X197474897Y-139516827D03*
D20*
X123199897Y-153486827D03*
X125699897Y-153486827D03*
D24*
X193889897Y-105861827D03*
D25*
X196429897Y-105861827D03*
D28*
X113911300Y-155433826D03*
D29*
X111371300Y-155433826D03*
D11*
X185459897Y-123006827D03*
D12*
X187999897Y-123006827D03*
D11*
X179059897Y-112161827D03*
D12*
X179059897Y-109621827D03*
D30*
X165402397Y-145581827D03*
D31*
X165402397Y-151581827D03*
D32*
X170102397Y-148581827D03*
D33*
X168899897Y-141741827D03*
X168899897Y-143641827D03*
D34*
X187949897Y-105861827D03*
D35*
X189219897Y-105861827D03*
X190489897Y-105861827D03*
D11*
X172659897Y-133166827D03*
D12*
X170119897Y-133166827D03*
D36*
X186679897Y-138881827D03*
D37*
X186679897Y-140151827D03*
X186679897Y-141421827D03*
D33*
X145404897Y-141741827D03*
X145404897Y-143641827D03*
D38*
X128749897Y-131667827D03*
X128749897Y-133369827D03*
X128749897Y-135071827D03*
X128749897Y-136773827D03*
X128749897Y-138475827D03*
D39*
X139054897Y-135071827D03*
D11*
X153659897Y-147086827D03*
D12*
X153659897Y-144546827D03*
D40*
X180329897Y-141106827D03*
X178429897Y-141106827D03*
D24*
X194934897Y-122371827D03*
D25*
X197474897Y-122371827D03*
D11*
X186044897Y-115386827D03*
D12*
X186044897Y-112846827D03*
D14*
X161914897Y-140151827D03*
D15*
X159374897Y-140151827D03*
D14*
X145973800Y-152258826D03*
D15*
X143433800Y-152258826D03*
X140893800Y-152258826D03*
X138353800Y-152258826D03*
X135813800Y-152258826D03*
X133273800Y-152258826D03*
X130733800Y-152258826D03*
D41*
X187938800Y-157338826D03*
X196138800Y-157338826D03*
D42*
X190038800Y-157338826D03*
D43*
X192038800Y-157338826D03*
X194038800Y-157338826D03*
D14*
X171439897Y-104586827D03*
D15*
X171439897Y-107126827D03*
D23*
X198704897Y-147771827D03*
X193704897Y-147771827D03*
D44*
X146079897Y-138801827D03*
D45*
X148579897Y-133801827D03*
X151079897Y-138801827D03*
D14*
X182869897Y-103956827D03*
D15*
X182869897Y-106496827D03*
D14*
X186044897Y-119831827D03*
D15*
X188584897Y-119831827D03*
D11*
X147309897Y-126231827D03*
D12*
X147309897Y-128771827D03*
D14*
X200649897Y-157296827D03*
X200649897Y-103956827D03*
X180964897Y-149041827D03*
D15*
X180964897Y-151581827D03*
D46*
X163169388Y-74539295D03*
X173354788Y-74539295D03*
X174406348Y-71768155D03*
X174048208Y-68829375D03*
X172366728Y-66390975D03*
X169742908Y-65014295D03*
X166781268Y-65014295D03*
X164157448Y-66390975D03*
X162475968Y-68829375D03*
X162117828Y-71768155D03*
X168262088Y-77211375D03*
X171137368Y-76502715D03*
X165386808Y-76502715D03*
D11*
X86347088Y-55833935D03*
D12*
X86347088Y-58373935D03*
D47*
X164452088Y-78643935D03*
X146672088Y-62768935D03*
X113017088Y-78643935D03*
D48*
X83959887Y-80586136D03*
X83159886Y-80586136D03*
X82359887Y-80586136D03*
X81559886Y-80586136D03*
X80759888Y-80586136D03*
X79959887Y-80586136D03*
X79159886Y-80586136D03*
X78359888Y-80586136D03*
X77559887Y-80586136D03*
X76759888Y-80586136D03*
X75959887Y-80586136D03*
D49*
X74282088Y-82263935D03*
X74282088Y-83063936D03*
X74282088Y-83863935D03*
X74282088Y-84663936D03*
X74282088Y-85463934D03*
X74282088Y-86263935D03*
X74282088Y-87063936D03*
X74282088Y-87863934D03*
X74282088Y-88663935D03*
X74282088Y-89463934D03*
X74282088Y-90263935D03*
D48*
X75959887Y-91941734D03*
X76759888Y-91941734D03*
X77559887Y-91941734D03*
X78359888Y-91941734D03*
X79159886Y-91941734D03*
X79959887Y-91941734D03*
X80759888Y-91941734D03*
X81559886Y-91941734D03*
X82359887Y-91941734D03*
X83159886Y-91941734D03*
X83959887Y-91941734D03*
D49*
X85637686Y-90263935D03*
X85637686Y-89463934D03*
X85637686Y-88663935D03*
X85637686Y-87863934D03*
X85637686Y-87063936D03*
X85637686Y-86263935D03*
X85637686Y-85463934D03*
X85637686Y-84663936D03*
X85637686Y-83863935D03*
X85637686Y-83063936D03*
X85637686Y-82263935D03*
D47*
X121907088Y-76103935D03*
X50152088Y-79913935D03*
D46*
X182854388Y-74539295D03*
X193039788Y-74539295D03*
X194091348Y-71768155D03*
X193733208Y-68829375D03*
X192051728Y-66390975D03*
X189427908Y-65014295D03*
X186466268Y-65014295D03*
X183842448Y-66390975D03*
X182160968Y-68829375D03*
X181802828Y-71768155D03*
X187947088Y-77211375D03*
X190822368Y-76502715D03*
X185071808Y-76502715D03*
D11*
X125717088Y-55833935D03*
D12*
X125717088Y-58373935D03*
D11*
X46977088Y-55833935D03*
D12*
X46977088Y-58373935D03*
D47*
X156832088Y-68483935D03*
X182232088Y-64673935D03*
X137147088Y-72928935D03*
D46*
X84429388Y-74539295D03*
X94614788Y-74539295D03*
X95666348Y-71768155D03*
X95308208Y-68829375D03*
X93626728Y-66390975D03*
X91002908Y-65014295D03*
X88041268Y-65014295D03*
X85417448Y-66390975D03*
X83735968Y-68829375D03*
X83377828Y-71768155D03*
X89522088Y-77211375D03*
X92397368Y-76502715D03*
X86646808Y-76502715D03*
D47*
X179692088Y-68483935D03*
X155562088Y-76103935D03*
X41897088Y-68483935D03*
D11*
X101537088Y-83723935D03*
D12*
X98997088Y-83723935D03*
D46*
X45059388Y-74539295D03*
X55244788Y-74539295D03*
X56296348Y-71768155D03*
X55938208Y-68829375D03*
X54256728Y-66390975D03*
X51632908Y-65014295D03*
X48671268Y-65014295D03*
X46047448Y-66390975D03*
X44365968Y-68829375D03*
X44007828Y-71768155D03*
X50152088Y-77211375D03*
X53027368Y-76502715D03*
X47276808Y-76502715D03*
D11*
X112382088Y-55833935D03*
D12*
X112382088Y-58373935D03*
D47*
X89522088Y-79913935D03*
X161277088Y-76103935D03*
X83807088Y-64673935D03*
X44437088Y-64673935D03*
X135877088Y-76103935D03*
X196202088Y-72928935D03*
D11*
X165087088Y-55833935D03*
D12*
X165087088Y-58373935D03*
D47*
X96507088Y-76103935D03*
X58407088Y-68483935D03*
D33*
X73012088Y-92933935D03*
X73012088Y-94833935D03*
D47*
X76822088Y-76103935D03*
X170167088Y-62768935D03*
X173977088Y-64673935D03*
X117462088Y-72928935D03*
D11*
X151752088Y-55833935D03*
D12*
X151752088Y-58373935D03*
D47*
X91427088Y-62768935D03*
D11*
X174027088Y-83088935D03*
D12*
X176567088Y-83088935D03*
D47*
X107302088Y-62768935D03*
X62852088Y-76103935D03*
X114922088Y-64673935D03*
X189852088Y-62768935D03*
D11*
X64072088Y-83723935D03*
D12*
X61532088Y-83723935D03*
D48*
X162139289Y-81056135D03*
X161339288Y-81056135D03*
X160539289Y-81056135D03*
X159739288Y-81056135D03*
X158939290Y-81056135D03*
X158139289Y-81056135D03*
X157339288Y-81056135D03*
X156539290Y-81056135D03*
X155739289Y-81056135D03*
X154939290Y-81056135D03*
X154139289Y-81056135D03*
D49*
X152461490Y-82733934D03*
X152461490Y-83533935D03*
X152461490Y-84333934D03*
X152461490Y-85133935D03*
X152461490Y-85933933D03*
X152461490Y-86733934D03*
X152461490Y-87533935D03*
X152461490Y-88333933D03*
X152461490Y-89133934D03*
X152461490Y-89933933D03*
X152461490Y-90733934D03*
D48*
X154139289Y-92411733D03*
X154939290Y-92411733D03*
X155739289Y-92411733D03*
X156539290Y-92411733D03*
X157339288Y-92411733D03*
X158139289Y-92411733D03*
X158939290Y-92411733D03*
X159739288Y-92411733D03*
X160539289Y-92411733D03*
X161339288Y-92411733D03*
X162139289Y-92411733D03*
D49*
X163817088Y-90733934D03*
X163817088Y-89933933D03*
X163817088Y-89133934D03*
X163817088Y-88333933D03*
X163817088Y-87533935D03*
X163817088Y-86733934D03*
X163817088Y-85933933D03*
X163817088Y-85133935D03*
X163817088Y-84333934D03*
X163817088Y-83533935D03*
X163817088Y-82733934D03*
D47*
X120637088Y-72928935D03*
X66027088Y-78643935D03*
D11*
X53327088Y-55833935D03*
D12*
X53327088Y-58373935D03*
D33*
X127622088Y-92933935D03*
X127622088Y-94833935D03*
D47*
X184137088Y-78643935D03*
X175247088Y-76103935D03*
X148577088Y-79913935D03*
D48*
X122769289Y-80586136D03*
X121969288Y-80586136D03*
X121169289Y-80586136D03*
X120369288Y-80586136D03*
X119569290Y-80586136D03*
X118769289Y-80586136D03*
X117969288Y-80586136D03*
X117169290Y-80586136D03*
X116369289Y-80586136D03*
X115569290Y-80586136D03*
X114769289Y-80586136D03*
D49*
X113091490Y-82263935D03*
X113091490Y-83063936D03*
X113091490Y-83863935D03*
X113091490Y-84663936D03*
X113091490Y-85463934D03*
X113091490Y-86263935D03*
X113091490Y-87063936D03*
X113091490Y-87863934D03*
X113091490Y-88663935D03*
X113091490Y-89463934D03*
X113091490Y-90263935D03*
D48*
X114769289Y-91941734D03*
X115569290Y-91941734D03*
X116369289Y-91941734D03*
X117169290Y-91941734D03*
X117969288Y-91941734D03*
X118769289Y-91941734D03*
X119569290Y-91941734D03*
X120369288Y-91941734D03*
X121169289Y-91941734D03*
X121969288Y-91941734D03*
X122769289Y-91941734D03*
D49*
X124447088Y-90263935D03*
X124447088Y-89463934D03*
X124447088Y-88663935D03*
X124447088Y-87863934D03*
X124447088Y-87063936D03*
X124447088Y-86263935D03*
X124447088Y-85463934D03*
X124447088Y-84663936D03*
X124447088Y-83863935D03*
X124447088Y-83063936D03*
X124447088Y-82263935D03*
D47*
X75552088Y-64673935D03*
X144767088Y-78643935D03*
D14*
X37452088Y-97693935D03*
D11*
X92697088Y-55833935D03*
D12*
X92697088Y-58373935D03*
D47*
X93332088Y-78643935D03*
X100952088Y-72928935D03*
D11*
X94017088Y-83723935D03*
D12*
X96557088Y-83723935D03*
D47*
X160007088Y-68483935D03*
X109207088Y-79913935D03*
D11*
X132067088Y-55833935D03*
D12*
X132067088Y-58373935D03*
D46*
X104114388Y-74539295D03*
X114299788Y-74539295D03*
X115351348Y-71768155D03*
X114993208Y-68829375D03*
X113311728Y-66390975D03*
X110687908Y-65014295D03*
X107726268Y-65014295D03*
X105102448Y-66390975D03*
X103420968Y-68829375D03*
X103062828Y-71768155D03*
X109207088Y-77211375D03*
X112082368Y-76502715D03*
X106331808Y-76502715D03*
D47*
X154292088Y-64673935D03*
D14*
X37452088Y-44353935D03*
D47*
X81267088Y-68483935D03*
X176517088Y-68483935D03*
X48247088Y-62768935D03*
X111112088Y-62768935D03*
X186042088Y-62768935D03*
X81267088Y-72928935D03*
X95237088Y-64673935D03*
X120637088Y-68483935D03*
D11*
X171437088Y-55833935D03*
D12*
X171437088Y-58373935D03*
D47*
X137147088Y-68483935D03*
X69837088Y-79913935D03*
X61582088Y-72928935D03*
X132702088Y-78643935D03*
X126987088Y-62768935D03*
D11*
X145402088Y-55833935D03*
D12*
X145402088Y-58373935D03*
D11*
X191122088Y-55833935D03*
D12*
X191122088Y-58373935D03*
D47*
X168262088Y-79913935D03*
X193662088Y-64673935D03*
D11*
X143447088Y-83723935D03*
D12*
X140907088Y-83723935D03*
D33*
X165087088Y-95473935D03*
X165087088Y-97373935D03*
D47*
X57137088Y-76103935D03*
X180962088Y-76103935D03*
X196202088Y-68483935D03*
D14*
X92082088Y-92588935D03*
D15*
X94622088Y-92588935D03*
X97162088Y-92588935D03*
X99702088Y-92588935D03*
X102242088Y-92588935D03*
X104782088Y-92588935D03*
X107322088Y-92588935D03*
D47*
X82537088Y-76103935D03*
X103492088Y-64673935D03*
D11*
X181547088Y-83088935D03*
D12*
X179007088Y-83088935D03*
D47*
X166357088Y-62768935D03*
X46342088Y-78643935D03*
X43167088Y-76103935D03*
X172072088Y-78643935D03*
X117462088Y-68483935D03*
X100952088Y-68483935D03*
X160007088Y-72928935D03*
X125082088Y-78643935D03*
D11*
X184772088Y-55833935D03*
D12*
X184772088Y-58373935D03*
D47*
X78092088Y-72928935D03*
X55867088Y-64673935D03*
D11*
X135927088Y-83723935D03*
D12*
X138467088Y-83723935D03*
D47*
X85712088Y-78643935D03*
D11*
X56552088Y-83723935D03*
D12*
X59092088Y-83723935D03*
D47*
X162547088Y-64673935D03*
X53962088Y-78643935D03*
X71742088Y-62768935D03*
D14*
X131432088Y-92613935D03*
D47*
X194932088Y-76103935D03*
X102222088Y-76103935D03*
X97777088Y-72928935D03*
X41897088Y-72928935D03*
D11*
X73012088Y-55833935D03*
D12*
X73012088Y-58373935D03*
D47*
X64122088Y-64673935D03*
X141592088Y-76103935D03*
X191757088Y-78643935D03*
D46*
X123799388Y-74539295D03*
X133984788Y-74539295D03*
X135036348Y-71768155D03*
X134678208Y-68829375D03*
X132996728Y-66390975D03*
X130372908Y-65014295D03*
X127411268Y-65014295D03*
X124787448Y-66390975D03*
X123105968Y-68829375D03*
X122747828Y-71768155D03*
X128892088Y-77211375D03*
X131767368Y-76502715D03*
X126016808Y-76502715D03*
D11*
X106032088Y-55833935D03*
D12*
X106032088Y-58373935D03*
D47*
X156832088Y-72928935D03*
D46*
X64744388Y-74539295D03*
X74929788Y-74539295D03*
X75981348Y-71768155D03*
X75623208Y-68829375D03*
X73941728Y-66390975D03*
X71317908Y-65014295D03*
X68356268Y-65014295D03*
X65732448Y-66390975D03*
X64050968Y-68829375D03*
X63692828Y-71768155D03*
X69837088Y-77211375D03*
X72712368Y-76502715D03*
X66961808Y-76502715D03*
X143484388Y-74539295D03*
X153669788Y-74539295D03*
X154721348Y-71768155D03*
X154363208Y-68829375D03*
X152681728Y-66390975D03*
X150057908Y-65014295D03*
X147096268Y-65014295D03*
X144472448Y-66390975D03*
X142790968Y-68829375D03*
X142432828Y-71768155D03*
X148577088Y-77211375D03*
X151452368Y-76502715D03*
X145701808Y-76502715D03*
D47*
X61582088Y-68483935D03*
X97777088Y-68483935D03*
X187947088Y-79913935D03*
X87617088Y-62768935D03*
X123177088Y-64673935D03*
D14*
X131432088Y-49433935D03*
D47*
X150482088Y-62768935D03*
X116192088Y-76103935D03*
X179692088Y-72928935D03*
X52057088Y-62768935D03*
X78092088Y-68483935D03*
D11*
X66662088Y-55833935D03*
D12*
X66662088Y-58373935D03*
D47*
X142862088Y-64673935D03*
X67932088Y-62768935D03*
X105397088Y-78643935D03*
X58407088Y-72928935D03*
X130797088Y-62768935D03*
X152387088Y-78643935D03*
X140322088Y-68483935D03*
X176517088Y-72928935D03*
X128892088Y-79913935D03*
X140322088Y-72928935D03*
X134607088Y-64673935D03*
X73647088Y-78643935D03*
D36*
X186679897Y-147136827D03*
D37*
X186679897Y-148406827D03*
X186679897Y-149676827D03*
D23*
X198784897Y-114116827D03*
X193784897Y-114116827D03*
D14*
X135808800Y-124953826D03*
D15*
X138348800Y-124953826D03*
D14*
X112953800Y-124953826D03*
D15*
X115493800Y-124953826D03*
X118033800Y-124953826D03*
D11*
X185459897Y-130626827D03*
D12*
X187999897Y-130626827D03*
D11*
X172659897Y-135706827D03*
D12*
X170119897Y-135706827D03*
D14*
X106669897Y-109036827D03*
D50*
X116194897Y-129661827D03*
X116194897Y-145561827D03*
M02*
