M48
INCH,TZ
T1C0.0157
T2C0.0276
T3C0.0295
T4C0.0315
T5C0.0330
T6C0.0354
T7C0.0394
T8C0.0433
T9C0.0469
T10C0.0591
T11C0.0598
%
G90
G05
T1
X14245Y-34962
X14495Y-19462
X14495Y-21462
X14495Y-36962
X14745Y-34962
X15245Y-21462
X15245Y-34962
X15745Y-34962
X15995Y-21462
X16245Y-38712
X16469Y-17962
X16745Y-21462
X18745Y-33962
X18995Y-33212
X19495Y-32212
X19745Y-34462
X20328Y-31712
X22495Y-34919
X22745Y-31712
X23265Y-35574
X23495Y-21462
X26495Y-27462
X26995Y-29962
X26995Y-32712
X27245Y-27212
X27995Y-32712
X28232Y-29475
X28245Y-27962
X28245Y-32212
X28745Y-35962
X29495Y-26462
X29745Y-27712
X29995Y-32962
X29995Y-35712
X30495Y-20712
X30495Y-32962
X30495Y-37962
X30995Y-32462
X31153Y-31278
X31245Y-18962
X31245Y-30962
X31245Y-32962
X31495Y-33462
X31745Y-30962
X31832Y-36646
X32350Y-37567
X32413Y-30962
X32495Y-34212
X33043Y-31212
X33245Y-37287
X33495Y-18962
X33495Y-31712
X33995Y-28712
X34245Y-36212
X34245Y-37498
X34495Y-32712
X34495Y-33462
X35245Y-36927
X35495Y-31962
X35544Y-36670
X36424Y-31891
X36495Y-35462
X37245Y-37962
X37495Y-35748
X37745Y-37212
X38245Y-21212
X38245Y-37212
X39538Y-30919
X39745Y-34210
X39932Y-30797
X40732Y-35475
X40995Y-37677
X41010Y-31447
X41495Y-34212
X41720Y-44694
X41745Y-31712
X41883Y-34535
X41995Y-27462
X42048Y-31981
X42245Y-34212
X42746Y-41428
X43084Y-32302
X43246Y-44428
X43495Y-19462
X43495Y-32212
X43745Y-26962
X44245Y-31712
X44745Y-30212
X44995Y-36927
X44996Y-61928
X45245Y-38427
X45495Y-30712
X45495Y-35694
X45495Y-37212
X45803Y-30712
X46219Y-35462
X46433Y-30962
X46495Y-20962
X46745Y-30962
X46995Y-35462
X46995Y-37212
X47378Y-31052
X47433Y-35212
X47495Y-38427
X47745Y-30962
X47745Y-37498
X48245Y-35212
X48995Y-31712
X49245Y-36462
X49745Y-32462
X49995Y-32962
X50495Y-34895
X50746Y-51178
X50995Y-32462
X51495Y-26462
X51745Y-28462
X52745Y-36462
X53245Y-35265
X53496Y-56928
X53496Y-58178
X53745Y-31212
X53995Y-37962
X54168Y-31289
X54468Y-56150
X54745Y-22212
X55245Y-37962
X55996Y-57928
X56245Y-36712
X57120Y-31837
X57246Y-51928
X57442Y-35265
X58240Y-56713
X58245Y-34462
X58246Y-55829
X58495Y-27712
X58495Y-35962
X58746Y-58928
X59495Y-34462
X59627Y-27594
X60446Y-33529
X60495Y-28712
X60625Y-33832
X60745Y-34147
X60995Y-35212
X61495Y-19712
X62245Y-32303
X62245Y-32909
X62245Y-35712
X62370Y-32606
X62495Y-33462
X62495Y-37212
X62996Y-51178
X63245Y-34729
X63245Y-38712
X63495Y-37712
X63496Y-49928
X63496Y-58178
X63496Y-60678
X63745Y-34712
X63969Y-34212
X63995Y-35212
X63995Y-38212
X64745Y-28462
X64745Y-36462
X65246Y-62178
X65496Y-48928
X65745Y-27462
X65817Y-31069
X66246Y-47178
X66246Y-60678
X66304Y-32572
X66470Y-61694
X66495Y-32887
X66996Y-45428
X67246Y-48428
X67334Y-28052
X67496Y-56178
X67745Y-33202
X67745Y-33505
X67745Y-34135
X67745Y-34462
X67745Y-34765
X67745Y-35080
X67745Y-33820
X68245Y-18712
X68246Y-48928
X68496Y-56678
X69245Y-30712
X69246Y-61678
X69495Y-36712
X69495Y-37712
X69720Y-61678
X69745Y-30712
X69995Y-23462
X69996Y-56678
X69996Y-59428
X70245Y-29962
X70496Y-54678
X70496Y-57428
X70746Y-54178
X70746Y-56178
X70999Y-54933
X71245Y-33202
X71245Y-33809
X71245Y-34462
X71245Y-35068
X71245Y-38462
X71246Y-57178
X71495Y-31462
X71496Y-55678
X71719Y-30962
X71996Y-55303
X72246Y-56928
X72995Y-32212
X73745Y-32212
X73969Y-29212
X74245Y-33712
X75495Y-18712
X75495Y-32212
X75495Y-37962
X75720Y-59694
X75746Y-52178
X76245Y-33212
X76246Y-52928
X78220Y-60194
X78495Y-35712
X78995Y-20962
T2
X18495Y-21982
X18495Y-22982
X20995Y-21982
X20995Y-22982
X22265Y-32962
X23265Y-32962
X24225Y-32962
X25225Y-32962
X26245Y-21982
X26245Y-22982
X28745Y-21982
X28745Y-22982
X33995Y-21982
X33995Y-22982
X36495Y-21982
X36495Y-22982
X37015Y-32962
X38015Y-32962
X38975Y-32962
X39975Y-32962
X41745Y-21982
X41745Y-22982
X44245Y-21982
X44245Y-22982
X49495Y-21982
X49495Y-22982
X51995Y-21982
X51995Y-22982
X53515Y-32962
X54515Y-32962
X55475Y-32962
X56475Y-32962
X57245Y-21982
X57245Y-22982
X57996Y-49698
X57996Y-50698
X59745Y-21982
X59745Y-22982
X60496Y-56908
X60496Y-57908
X64995Y-21982
X64995Y-22982
X65996Y-41158
X65996Y-42158
X66976Y-51428
X66976Y-52428
X66976Y-53428
X67495Y-21982
X67495Y-22982
X67976Y-51428
X67976Y-52428
X67976Y-53428
X67996Y-46448
X67996Y-47448
X68515Y-32712
X69515Y-32712
X70475Y-32712
X70496Y-43158
X70496Y-44158
X71475Y-32712
X71996Y-43198
X71996Y-44198
X72745Y-21982
X72745Y-22982
X72976Y-50428
X73016Y-48428
X73016Y-49428
X73016Y-51428
X73016Y-53428
X73246Y-44428
X73246Y-45428
X73976Y-50428
X74016Y-48428
X74016Y-49428
X74016Y-51428
X74016Y-53428
X75245Y-21982
X75245Y-22982
T3
X73496Y-54678
X73496Y-55178
X73496Y-55678
X73496Y-57928
X73496Y-58428
X73496Y-58928
X73996Y-41678
X74496Y-41678
X74996Y-41678
T4
X48504Y-60428
X49488Y-60428
X60246Y-60178
X60246Y-61556
X68720Y-61944
X68996Y-45428
X68996Y-46428
X68996Y-47428
X68996Y-48428
X68996Y-49428
X68996Y-50428
X68996Y-51428
X68996Y-52428
X68996Y-53428
X68996Y-54428
X70295Y-61944
X71082Y-61944
X71870Y-61944
X71996Y-45428
X71996Y-46428
X71996Y-47428
X71996Y-48428
X71996Y-49428
X71996Y-50428
X71996Y-51428
X71996Y-52428
X71996Y-53428
X71996Y-54428
T5
X17326Y-28255
X17467Y-27098
X17740Y-29346
X18129Y-26138
X18613Y-30119
X19162Y-25596
X19745Y-30398
X20328Y-25596
X20877Y-30119
X21361Y-26138
X21750Y-29346
X22023Y-27098
X22164Y-28255
X25076Y-28255
X25217Y-27098
X25490Y-29346
X25879Y-26138
X26363Y-30119
X26912Y-25596
X27495Y-30398
X28078Y-25596
X28627Y-30119
X29111Y-26138
X29500Y-29346
X29773Y-27098
X29914Y-28255
X32826Y-28255
X32967Y-27098
X33240Y-29346
X33629Y-26138
X34113Y-30119
X34662Y-25596
X35245Y-30398
X35828Y-25596
X36377Y-30119
X36861Y-26138
X37250Y-29346
X37523Y-27098
X37664Y-28255
X40576Y-28255
X40717Y-27098
X40990Y-29346
X41379Y-26138
X41863Y-30119
X42412Y-25596
X42995Y-30398
X43578Y-25596
X44127Y-30119
X44611Y-26138
X45000Y-29346
X45273Y-27098
X45414Y-28255
X48326Y-28255
X48467Y-27098
X48740Y-29346
X49129Y-26138
X49613Y-30119
X50162Y-25596
X50745Y-30398
X51328Y-25596
X51877Y-30119
X52361Y-26138
X52750Y-29346
X53023Y-27098
X53164Y-28255
X56076Y-28255
X56217Y-27098
X56490Y-29346
X56879Y-26138
X57363Y-30119
X57912Y-25596
X58495Y-30398
X59078Y-25596
X59627Y-30119
X60111Y-26138
X60500Y-29346
X60773Y-27098
X60914Y-28255
X63826Y-28255
X63967Y-27098
X64240Y-29346
X64629Y-26138
X65113Y-30119
X65662Y-25596
X66245Y-30398
X66828Y-25596
X67377Y-30119
X67861Y-26138
X68250Y-29346
X68523Y-27098
X68664Y-28255
X71576Y-28255
X71717Y-27098
X71990Y-29346
X72379Y-26138
X72863Y-30119
X73412Y-25596
X73995Y-30398
X74578Y-25596
X75127Y-30119
X75611Y-26138
X76000Y-29346
X76273Y-27098
X76414Y-28255
T6
X46496Y-60766
X46496Y-61766
X74818Y-61944
X75606Y-61944
X76262Y-51428
X76262Y-58178
X76293Y-44928
X76335Y-41678
X76393Y-61944
X76746Y-48178
X76746Y-54928
X77335Y-41678
X77746Y-48178
X77746Y-54928
X78230Y-51428
X78230Y-58178
X78262Y-44928
T7
X14745Y-17462
X14745Y-38462
X36253Y-36452
X37253Y-36452
X38253Y-36452
X39253Y-36452
X40253Y-36452
X41253Y-36452
X41996Y-42928
X41996Y-59928
X42253Y-36452
X44470Y-49194
X45470Y-49194
X46470Y-49194
X51470Y-59944
X51745Y-19462
X51745Y-36462
X52470Y-59944
X53468Y-49194
X53470Y-59944
X54468Y-49194
X54470Y-59944
X55470Y-59944
X56470Y-59944
X57470Y-59944
X62746Y-55178
X63746Y-55178
X67496Y-41176
X67496Y-42176
X68746Y-58678
X68746Y-59678
X70496Y-40930
X70496Y-41930
X71246Y-58678
X71246Y-59678
X71996Y-40928
X71996Y-41928
X73246Y-47178
X74246Y-47178
X78996Y-40928
X78996Y-61928
T8
X57512Y-54646
X58496Y-52678
X59480Y-54646
T9
X43847Y-61194
X44847Y-61194
T10
X50573Y-57678
X58919Y-57678
X67893Y-61944
X72696Y-61944
X73992Y-61944
X77220Y-61944
T11
X58127Y-44897
X66194Y-44897
T7
G00X64725Y-57316
M15
G01X65513Y-57316
M16
G05
G00X64725Y-59678
M15
G01X65513Y-59678
M16
G05
G00X66969Y-58890
M15
G01X66969Y-58103
M16
G05
M30
